%TF.GenerationSoftware,KiCad,Pcbnew,(5.1.10)-1*%
%TF.CreationDate,2021-09-10T17:08:48-03:00*%
%TF.ProjectId,SabVolAudio,53616256-6f6c-4417-9564-696f2e6b6963,rev?*%
%TF.SameCoordinates,Original*%
%TF.FileFunction,Copper,L2,Bot*%
%TF.FilePolarity,Positive*%
%FSLAX46Y46*%
G04 Gerber Fmt 4.6, Leading zero omitted, Abs format (unit mm)*
G04 Created by KiCad (PCBNEW (5.1.10)-1) date 2021-09-10 17:08:48*
%MOMM*%
%LPD*%
G01*
G04 APERTURE LIST*
%TA.AperFunction,ComponentPad*%
%ADD10C,1.200000*%
%TD*%
%TA.AperFunction,ComponentPad*%
%ADD11R,1.200000X1.200000*%
%TD*%
%TA.AperFunction,ComponentPad*%
%ADD12C,2.000000*%
%TD*%
%TA.AperFunction,ComponentPad*%
%ADD13O,1.700000X1.700000*%
%TD*%
%TA.AperFunction,ComponentPad*%
%ADD14R,1.700000X1.700000*%
%TD*%
%TA.AperFunction,ComponentPad*%
%ADD15C,3.000000*%
%TD*%
%TA.AperFunction,ComponentPad*%
%ADD16R,3.000000X3.000000*%
%TD*%
%TA.AperFunction,ComponentPad*%
%ADD17C,2.300000*%
%TD*%
%TA.AperFunction,ComponentPad*%
%ADD18R,2.300000X2.000000*%
%TD*%
%TA.AperFunction,ComponentPad*%
%ADD19C,1.524000*%
%TD*%
%TA.AperFunction,ComponentPad*%
%ADD20O,1.400000X1.400000*%
%TD*%
%TA.AperFunction,ComponentPad*%
%ADD21C,1.400000*%
%TD*%
%TA.AperFunction,ComponentPad*%
%ADD22O,3.960000X1.980000*%
%TD*%
%TA.AperFunction,ComponentPad*%
%ADD23R,3.960000X1.980000*%
%TD*%
%TA.AperFunction,ViaPad*%
%ADD24C,1.500000*%
%TD*%
%TA.AperFunction,ViaPad*%
%ADD25C,0.400000*%
%TD*%
%TA.AperFunction,Conductor*%
%ADD26C,1.000000*%
%TD*%
%TA.AperFunction,Conductor*%
%ADD27C,0.600000*%
%TD*%
G04 APERTURE END LIST*
D10*
%TO.P,C6,2*%
%TO.N,Net-(C6-Pad2)*%
X189500000Y-87250000D03*
D11*
%TO.P,C6,1*%
%TO.N,Net-(C6-Pad1)*%
X187500000Y-87250000D03*
%TD*%
D10*
%TO.P,C3,2*%
%TO.N,Net-(C3-Pad2)*%
X189500000Y-69750000D03*
D11*
%TO.P,C3,1*%
%TO.N,Net-(C3-Pad1)*%
X187500000Y-69750000D03*
%TD*%
D10*
%TO.P,C24,2*%
%TO.N,Net-(C24-Pad2)*%
X154690000Y-91640000D03*
D11*
%TO.P,C24,1*%
%TO.N,Net-(C23-Pad1)*%
X154690000Y-93640000D03*
%TD*%
D10*
%TO.P,C23,2*%
%TO.N,Net-(C23-Pad2)*%
X160270000Y-91610000D03*
D11*
%TO.P,C23,1*%
%TO.N,Net-(C23-Pad1)*%
X160270000Y-93610000D03*
%TD*%
D10*
%TO.P,C22,2*%
%TO.N,Net-(C22-Pad2)*%
X165950000Y-91600000D03*
D11*
%TO.P,C22,1*%
%TO.N,Net-(C21-Pad1)*%
X165950000Y-93600000D03*
%TD*%
D10*
%TO.P,C21,2*%
%TO.N,Net-(C21-Pad2)*%
X171700000Y-91620000D03*
D11*
%TO.P,C21,1*%
%TO.N,Net-(C21-Pad1)*%
X171700000Y-93620000D03*
%TD*%
D10*
%TO.P,C20,2*%
%TO.N,Net-(C20-Pad2)*%
X177260000Y-91610000D03*
D11*
%TO.P,C20,1*%
%TO.N,GND*%
X177260000Y-93610000D03*
%TD*%
D10*
%TO.P,C19,2*%
%TO.N,Net-(C18-Pad2)*%
X156450000Y-46600000D03*
D11*
%TO.P,C19,1*%
%TO.N,Net-(C19-Pad1)*%
X156450000Y-48600000D03*
%TD*%
D10*
%TO.P,C18,2*%
%TO.N,Net-(C18-Pad2)*%
X162000000Y-46610000D03*
D11*
%TO.P,C18,1*%
%TO.N,Net-(C18-Pad1)*%
X162000000Y-48610000D03*
%TD*%
D10*
%TO.P,C17,2*%
%TO.N,Net-(C16-Pad2)*%
X167550000Y-46550000D03*
D11*
%TO.P,C17,1*%
%TO.N,Net-(C17-Pad1)*%
X167550000Y-48550000D03*
%TD*%
D10*
%TO.P,C16,2*%
%TO.N,Net-(C16-Pad2)*%
X173100000Y-46550000D03*
D11*
%TO.P,C16,1*%
%TO.N,Net-(C16-Pad1)*%
X173100000Y-48550000D03*
%TD*%
D10*
%TO.P,C15,2*%
%TO.N,GND*%
X184250000Y-46600000D03*
D11*
%TO.P,C15,1*%
%TO.N,Net-(C15-Pad1)*%
X184250000Y-48600000D03*
%TD*%
D10*
%TO.P,C14,2*%
%TO.N,GND*%
X150850000Y-46550000D03*
D11*
%TO.P,C14,1*%
%TO.N,+12V*%
X150850000Y-48550000D03*
%TD*%
D10*
%TO.P,C13,2*%
%TO.N,GND*%
X181725000Y-75500000D03*
D11*
%TO.P,C13,1*%
%TO.N,Net-(C13-Pad1)*%
X179725000Y-75500000D03*
%TD*%
D10*
%TO.P,C12,2*%
%TO.N,Net-(C12-Pad2)*%
X143500000Y-87500000D03*
D11*
%TO.P,C12,1*%
%TO.N,Net-(C12-Pad1)*%
X145500000Y-87500000D03*
%TD*%
D10*
%TO.P,C11,2*%
%TO.N,Net-(C11-Pad2)*%
X143250000Y-81750000D03*
D11*
%TO.P,C11,1*%
%TO.N,Net-(C11-Pad1)*%
X145250000Y-81750000D03*
%TD*%
D10*
%TO.P,C10,2*%
%TO.N,Net-(C10-Pad2)*%
X143250000Y-76000000D03*
D11*
%TO.P,C10,1*%
%TO.N,Net-(C10-Pad1)*%
X145250000Y-76000000D03*
%TD*%
D10*
%TO.P,C9,2*%
%TO.N,Net-(C9-Pad2)*%
X143250000Y-70250000D03*
D11*
%TO.P,C9,1*%
%TO.N,Net-(C9-Pad1)*%
X145250000Y-70250000D03*
%TD*%
D10*
%TO.P,C8,2*%
%TO.N,Net-(C8-Pad2)*%
X143250000Y-64500000D03*
D11*
%TO.P,C8,1*%
%TO.N,Net-(C8-Pad1)*%
X145250000Y-64500000D03*
%TD*%
D10*
%TO.P,C7,2*%
%TO.N,Net-(C7-Pad2)*%
X143250000Y-58750000D03*
D11*
%TO.P,C7,1*%
%TO.N,Net-(C7-Pad1)*%
X145250000Y-58750000D03*
%TD*%
D10*
%TO.P,C5,2*%
%TO.N,Net-(C5-Pad2)*%
X189500000Y-81250000D03*
D11*
%TO.P,C5,1*%
%TO.N,Net-(C5-Pad1)*%
X187500000Y-81250000D03*
%TD*%
D10*
%TO.P,C4,2*%
%TO.N,Net-(C4-Pad2)*%
X189500000Y-75500000D03*
D11*
%TO.P,C4,1*%
%TO.N,Net-(C4-Pad1)*%
X187500000Y-75500000D03*
%TD*%
D10*
%TO.P,C2,2*%
%TO.N,Net-(C2-Pad2)*%
X189500000Y-64000000D03*
D11*
%TO.P,C2,1*%
%TO.N,Net-(C2-Pad1)*%
X187500000Y-64000000D03*
%TD*%
D10*
%TO.P,C1,2*%
%TO.N,Net-(C1-Pad2)*%
X189500000Y-58250000D03*
D11*
%TO.P,C1,1*%
%TO.N,Net-(C1-Pad1)*%
X187500000Y-58250000D03*
%TD*%
D12*
%TO.P,SW3,4*%
%TO.N,Net-(J10-Pad3)*%
X47140000Y-125730000D03*
%TO.P,SW3,3*%
X47140000Y-130230000D03*
%TO.P,SW3,1*%
%TO.N,Net-(J10-Pad1)*%
X40640000Y-125730000D03*
%TO.P,SW3,2*%
X40640000Y-130230000D03*
%TD*%
%TO.P,SW4,4*%
%TO.N,Net-(J10-Pad2)*%
X47140000Y-137160000D03*
%TO.P,SW4,3*%
X47140000Y-141660000D03*
%TO.P,SW4,1*%
%TO.N,Net-(J10-Pad1)*%
X40640000Y-137160000D03*
%TO.P,SW4,2*%
X40640000Y-141660000D03*
%TD*%
D13*
%TO.P,J5,12*%
%TO.N,GND*%
X141510000Y-140400000D03*
%TO.P,J5,11*%
%TO.N,N/C*%
X144050000Y-140400000D03*
%TO.P,J5,10*%
X146590000Y-140400000D03*
%TO.P,J5,9*%
X149130000Y-140400000D03*
%TO.P,J5,8*%
X151670000Y-140400000D03*
%TO.P,J5,7*%
X154210000Y-140400000D03*
%TO.P,J5,6*%
X156750000Y-140400000D03*
%TO.P,J5,5*%
%TO.N,Net-(J5-Pad5)*%
X159290000Y-140400000D03*
%TO.P,J5,4*%
%TO.N,Net-(J5-Pad4)*%
X161830000Y-140400000D03*
%TO.P,J5,3*%
%TO.N,Net-(J5-Pad3)*%
X164370000Y-140400000D03*
%TO.P,J5,2*%
%TO.N,Net-(J5-Pad2)*%
X166910000Y-140400000D03*
D14*
%TO.P,J5,1*%
%TO.N,GND*%
X169450000Y-140400000D03*
%TD*%
D13*
%TO.P,J3,7*%
%TO.N,Net-(C6-Pad2)*%
X197250000Y-81990000D03*
%TO.P,J3,6*%
%TO.N,Net-(C5-Pad2)*%
X197250000Y-79450000D03*
%TO.P,J3,5*%
%TO.N,Net-(C4-Pad2)*%
X197250000Y-76910000D03*
%TO.P,J3,4*%
%TO.N,GND*%
X197250000Y-74370000D03*
%TO.P,J3,3*%
%TO.N,Net-(C3-Pad2)*%
X197250000Y-71830000D03*
%TO.P,J3,2*%
%TO.N,Net-(C2-Pad2)*%
X197250000Y-69290000D03*
D14*
%TO.P,J3,1*%
%TO.N,Net-(C1-Pad2)*%
X197250000Y-66750000D03*
%TD*%
D13*
%TO.P,J11,7*%
%TO.N,Net-(J10-Pad12)*%
X53690000Y-99870000D03*
%TO.P,J11,6*%
%TO.N,Net-(J10-Pad11)*%
X53690000Y-97330000D03*
%TO.P,J11,5*%
%TO.N,Net-(J10-Pad10)*%
X53690000Y-94790000D03*
%TO.P,J11,4*%
%TO.N,Net-(J10-Pad9)*%
X53690000Y-92250000D03*
%TO.P,J11,3*%
%TO.N,Net-(J10-Pad8)*%
X53690000Y-89710000D03*
%TO.P,J11,2*%
%TO.N,Net-(J10-Pad7)*%
X53690000Y-87170000D03*
D14*
%TO.P,J11,1*%
%TO.N,Net-(J10-Pad6)*%
X53690000Y-84630000D03*
%TD*%
D13*
%TO.P,J10,12*%
%TO.N,Net-(J10-Pad12)*%
X61000000Y-111760000D03*
%TO.P,J10,11*%
%TO.N,Net-(J10-Pad11)*%
X61000000Y-114300000D03*
%TO.P,J10,10*%
%TO.N,Net-(J10-Pad10)*%
X61000000Y-116840000D03*
%TO.P,J10,9*%
%TO.N,Net-(J10-Pad9)*%
X61000000Y-119380000D03*
%TO.P,J10,8*%
%TO.N,Net-(J10-Pad8)*%
X61000000Y-121920000D03*
%TO.P,J10,7*%
%TO.N,Net-(J10-Pad7)*%
X61000000Y-124460000D03*
%TO.P,J10,6*%
%TO.N,Net-(J10-Pad6)*%
X61000000Y-127000000D03*
%TO.P,J10,5*%
%TO.N,Net-(J10-Pad5)*%
X61000000Y-129540000D03*
%TO.P,J10,4*%
%TO.N,Net-(J10-Pad4)*%
X61000000Y-132080000D03*
%TO.P,J10,3*%
%TO.N,Net-(J10-Pad3)*%
X61000000Y-134620000D03*
%TO.P,J10,2*%
%TO.N,Net-(J10-Pad2)*%
X61000000Y-137160000D03*
D14*
%TO.P,J10,1*%
%TO.N,Net-(J10-Pad1)*%
X61000000Y-139700000D03*
%TD*%
D13*
%TO.P,J4,7*%
%TO.N,Net-(C12-Pad2)*%
X135350000Y-82240000D03*
%TO.P,J4,6*%
%TO.N,Net-(C11-Pad2)*%
X135350000Y-79700000D03*
%TO.P,J4,5*%
%TO.N,Net-(C10-Pad2)*%
X135350000Y-77160000D03*
%TO.P,J4,4*%
%TO.N,GND*%
X135350000Y-74620000D03*
%TO.P,J4,3*%
%TO.N,Net-(C9-Pad2)*%
X135350000Y-72080000D03*
%TO.P,J4,2*%
%TO.N,Net-(C8-Pad2)*%
X135350000Y-69540000D03*
D14*
%TO.P,J4,1*%
%TO.N,Net-(C7-Pad2)*%
X135350000Y-67000000D03*
%TD*%
D15*
%TO.P,J1,2*%
%TO.N,Net-(J1-Pad2)*%
X260350000Y-115570000D03*
D16*
%TO.P,J1,1*%
%TO.N,Net-(J1-Pad1)*%
X260350000Y-110490000D03*
%TD*%
D17*
%TO.P,PS1,4*%
%TO.N,5V*%
X220790000Y-105370000D03*
%TO.P,PS1,2*%
%TO.N,Net-(J1-Pad1)*%
X250190000Y-110570000D03*
D18*
%TO.P,PS1,1*%
%TO.N,Net-(J1-Pad2)*%
X250190000Y-115570000D03*
D17*
%TO.P,PS1,3*%
%TO.N,GND*%
X220790000Y-120770000D03*
%TD*%
D19*
%TO.P,U1,1*%
%TO.N,N/C*%
X139700000Y-128270000D03*
%TO.P,U1,2*%
X142240000Y-128270000D03*
%TO.P,U1,3*%
X144780000Y-128270000D03*
%TO.P,U1,4*%
%TO.N,Net-(J5-Pad5)*%
X147320000Y-128270000D03*
%TO.P,U1,5*%
%TO.N,Net-(J5-Pad4)*%
X149860000Y-128270000D03*
%TO.P,U1,6*%
%TO.N,Net-(J5-Pad3)*%
X152400000Y-128270000D03*
%TO.P,U1,7*%
%TO.N,Net-(J5-Pad2)*%
X154940000Y-128270000D03*
%TO.P,U1,8*%
%TO.N,N/C*%
X157480000Y-128270000D03*
%TO.P,U1,9*%
X160020000Y-128270000D03*
%TO.P,U1,10*%
X162560000Y-128270000D03*
%TO.P,U1,11*%
X165100000Y-128270000D03*
%TO.P,U1,12*%
X167640000Y-128270000D03*
%TO.P,U1,13*%
X170180000Y-128270000D03*
%TO.P,U1,14*%
%TO.N,GND*%
X172720000Y-128270000D03*
%TO.P,U1,15*%
%TO.N,5V*%
X175260000Y-128270000D03*
%TO.P,U1,16*%
%TO.N,3V3*%
X175260000Y-102870000D03*
%TO.P,U1,17*%
%TO.N,GND*%
X172720000Y-102870000D03*
%TO.P,U1,18*%
%TO.N,N/C*%
X170180000Y-102870000D03*
%TO.P,U1,19*%
X167640000Y-102870000D03*
%TO.P,U1,20*%
X165100000Y-102870000D03*
%TO.P,U1,21*%
X162560000Y-102870000D03*
%TO.P,U1,22*%
X160020000Y-102870000D03*
%TO.P,U1,23*%
X157480000Y-102870000D03*
%TO.P,U1,24*%
X154940000Y-102870000D03*
%TO.P,U1,25*%
X152400000Y-102870000D03*
%TO.P,U1,26*%
%TO.N,SDA*%
X149860000Y-102870000D03*
%TO.P,U1,27*%
%TO.N,N/C*%
X147320000Y-102870000D03*
%TO.P,U1,28*%
X144780000Y-102870000D03*
%TO.P,U1,29*%
%TO.N,SCL*%
X142240000Y-102870000D03*
%TO.P,U1,30*%
%TO.N,N/C*%
X139700000Y-102870000D03*
%TD*%
D12*
%TO.P,SW2,4*%
%TO.N,Net-(J10-Pad4)*%
X47140000Y-115570000D03*
%TO.P,SW2,3*%
X47140000Y-120070000D03*
%TO.P,SW2,1*%
%TO.N,Net-(J10-Pad1)*%
X40640000Y-115570000D03*
%TO.P,SW2,2*%
X40640000Y-120070000D03*
%TD*%
%TO.P,SW1,4*%
%TO.N,Net-(J10-Pad5)*%
X47140000Y-105410000D03*
%TO.P,SW1,3*%
X47140000Y-109910000D03*
%TO.P,SW1,1*%
%TO.N,Net-(J10-Pad1)*%
X40640000Y-105410000D03*
%TO.P,SW1,2*%
X40640000Y-109910000D03*
%TD*%
D20*
%TO.P,R20,2*%
%TO.N,Net-(J5-Pad2)*%
X154950000Y-122975000D03*
D21*
%TO.P,R20,1*%
%TO.N,3V3*%
X154950000Y-121075000D03*
%TD*%
D20*
%TO.P,R19,2*%
%TO.N,Net-(J5-Pad3)*%
X152400000Y-122925000D03*
D21*
%TO.P,R19,1*%
%TO.N,3V3*%
X152400000Y-121025000D03*
%TD*%
D20*
%TO.P,R18,2*%
%TO.N,Net-(J5-Pad4)*%
X149920000Y-122950000D03*
D21*
%TO.P,R18,1*%
%TO.N,3V3*%
X149920000Y-121050000D03*
%TD*%
D20*
%TO.P,R17,2*%
%TO.N,Net-(J5-Pad5)*%
X147300000Y-122975000D03*
D21*
%TO.P,R17,1*%
%TO.N,3V3*%
X147300000Y-121075000D03*
%TD*%
D20*
%TO.P,R16,2*%
%TO.N,Net-(C23-Pad1)*%
X158750000Y-98806000D03*
D21*
%TO.P,R16,1*%
%TO.N,GND*%
X161290000Y-98806000D03*
%TD*%
D20*
%TO.P,R15,2*%
%TO.N,Net-(C21-Pad1)*%
X166370000Y-98806000D03*
D21*
%TO.P,R15,1*%
%TO.N,GND*%
X163830000Y-98806000D03*
%TD*%
D20*
%TO.P,R14,2*%
%TO.N,GND*%
X161160000Y-40600000D03*
D21*
%TO.P,R14,1*%
%TO.N,Net-(C18-Pad2)*%
X163700000Y-40600000D03*
%TD*%
D20*
%TO.P,R13,2*%
%TO.N,GND*%
X173440000Y-40650000D03*
D21*
%TO.P,R13,1*%
%TO.N,Net-(C16-Pad2)*%
X170900000Y-40650000D03*
%TD*%
D20*
%TO.P,R12,2*%
%TO.N,GND*%
X126460000Y-83000000D03*
D21*
%TO.P,R12,1*%
%TO.N,Net-(C12-Pad2)*%
X129000000Y-83000000D03*
%TD*%
D20*
%TO.P,R11,2*%
%TO.N,GND*%
X126460000Y-79000000D03*
D21*
%TO.P,R11,1*%
%TO.N,Net-(C11-Pad2)*%
X129000000Y-79000000D03*
%TD*%
D20*
%TO.P,R10,2*%
%TO.N,GND*%
X126460000Y-75000000D03*
D21*
%TO.P,R10,1*%
%TO.N,Net-(C10-Pad2)*%
X129000000Y-75000000D03*
%TD*%
D20*
%TO.P,R9,2*%
%TO.N,GND*%
X126460000Y-71000000D03*
D21*
%TO.P,R9,1*%
%TO.N,Net-(C9-Pad2)*%
X129000000Y-71000000D03*
%TD*%
D20*
%TO.P,R8,2*%
%TO.N,GND*%
X126460000Y-67000000D03*
D21*
%TO.P,R8,1*%
%TO.N,Net-(C8-Pad2)*%
X129000000Y-67000000D03*
%TD*%
D20*
%TO.P,R7,2*%
%TO.N,GND*%
X126460000Y-63000000D03*
D21*
%TO.P,R7,1*%
%TO.N,Net-(C7-Pad2)*%
X129000000Y-63000000D03*
%TD*%
D20*
%TO.P,R6,2*%
%TO.N,GND*%
X205790000Y-82750000D03*
D21*
%TO.P,R6,1*%
%TO.N,Net-(C6-Pad2)*%
X203250000Y-82750000D03*
%TD*%
D20*
%TO.P,R5,2*%
%TO.N,GND*%
X205790000Y-78750000D03*
D21*
%TO.P,R5,1*%
%TO.N,Net-(C5-Pad2)*%
X203250000Y-78750000D03*
%TD*%
D20*
%TO.P,R4,2*%
%TO.N,GND*%
X205790000Y-74750000D03*
D21*
%TO.P,R4,1*%
%TO.N,Net-(C4-Pad2)*%
X203250000Y-74750000D03*
%TD*%
D20*
%TO.P,R3,2*%
%TO.N,GND*%
X205790000Y-70750000D03*
D21*
%TO.P,R3,1*%
%TO.N,Net-(C3-Pad2)*%
X203250000Y-70750000D03*
%TD*%
D20*
%TO.P,R2,2*%
%TO.N,GND*%
X205790000Y-66750000D03*
D21*
%TO.P,R2,1*%
%TO.N,Net-(C2-Pad2)*%
X203250000Y-66750000D03*
%TD*%
D20*
%TO.P,R1,2*%
%TO.N,GND*%
X205790000Y-62750000D03*
D21*
%TO.P,R1,1*%
%TO.N,Net-(C1-Pad2)*%
X203250000Y-62750000D03*
%TD*%
D22*
%TO.P,J2,2*%
%TO.N,GND*%
X240000000Y-53000000D03*
D23*
%TO.P,J2,1*%
%TO.N,+12V*%
X240000000Y-48000000D03*
%TD*%
D24*
%TO.N,GND*%
X152700000Y-99225000D03*
X169450000Y-140400000D03*
X141510000Y-140400000D03*
X163830000Y-98806000D03*
X161290000Y-98806000D03*
X177260000Y-93610000D03*
X135350000Y-74620000D03*
X197250000Y-74370000D03*
X205790000Y-62750000D03*
X205790000Y-66750000D03*
X205750000Y-70790000D03*
X205790000Y-74750000D03*
X205790000Y-78750000D03*
X205790000Y-82750000D03*
%TO.N,Net-(C15-Pad1)*%
X173000000Y-61075000D03*
D25*
%TO.N,Net-(C16-Pad1)*%
X170950000Y-61050000D03*
D24*
X170950000Y-61050000D03*
D25*
%TO.N,Net-(C17-Pad1)*%
X169100000Y-61050000D03*
D24*
X169100000Y-61050000D03*
%TO.N,Net-(C18-Pad1)*%
X162000000Y-57870000D03*
%TO.N,Net-(C19-Pad1)*%
X157000000Y-57775000D03*
%TO.N,Net-(C20-Pad2)*%
X178970000Y-88080000D03*
X177260000Y-91610000D03*
%TO.N,Net-(C21-Pad2)*%
X172910000Y-87960000D03*
X171700000Y-91620000D03*
%TO.N,Net-(C21-Pad1)*%
X166370000Y-98806000D03*
X165950000Y-93600000D03*
X171700000Y-93620000D03*
%TO.N,Net-(C22-Pad2)*%
X166915000Y-88015000D03*
X165950000Y-91600000D03*
%TO.N,Net-(C23-Pad2)*%
X160270000Y-88105000D03*
X160270000Y-91610000D03*
%TO.N,Net-(C23-Pad1)*%
X158750000Y-98806000D03*
X160270000Y-93610000D03*
X154690000Y-93640000D03*
%TO.N,Net-(C24-Pad2)*%
X154690000Y-88135000D03*
X154690000Y-91640000D03*
%TO.N,+12V*%
X152525000Y-52950000D03*
X229175000Y-48000000D03*
%TO.N,3V3*%
X147300000Y-121075000D03*
X149920000Y-121050000D03*
X152400000Y-121025000D03*
X154950000Y-121075000D03*
%TO.N,SDA*%
X148450000Y-94200000D03*
%TO.N,SCL*%
X145350000Y-94050000D03*
%TO.N,Net-(C1-Pad2)*%
X197250000Y-66750000D03*
X203250000Y-62750000D03*
%TO.N,Net-(C1-Pad1)*%
X182102500Y-62827500D03*
%TO.N,Net-(C2-Pad2)*%
X197250000Y-69290000D03*
X203250000Y-66750000D03*
%TO.N,Net-(C2-Pad1)*%
X181990000Y-67090000D03*
%TO.N,Net-(C3-Pad2)*%
X197295000Y-71830000D03*
X203250000Y-70750000D03*
%TO.N,Net-(C3-Pad1)*%
X182170000Y-70740000D03*
%TO.N,Net-(C4-Pad2)*%
X197250000Y-76910000D03*
X203250000Y-74750000D03*
%TO.N,Net-(C4-Pad1)*%
X184350000Y-78800000D03*
%TO.N,Net-(C5-Pad2)*%
X197250000Y-79450000D03*
X203250000Y-78750000D03*
%TO.N,Net-(C5-Pad1)*%
X184525000Y-81250000D03*
%TO.N,Net-(C6-Pad2)*%
X197250000Y-81990000D03*
X203250000Y-82750000D03*
%TO.N,Net-(C6-Pad1)*%
X183700000Y-87250000D03*
%TO.N,Net-(C7-Pad2)*%
X135350000Y-67000000D03*
%TO.N,Net-(C7-Pad1)*%
X153785000Y-62065000D03*
%TO.N,Net-(C8-Pad2)*%
X135350000Y-69540000D03*
%TO.N,Net-(C8-Pad1)*%
X152790000Y-67910000D03*
%TO.N,Net-(C9-Pad2)*%
X135350000Y-72080000D03*
%TO.N,Net-(C9-Pad1)*%
X149700000Y-70250000D03*
%TO.N,Net-(C10-Pad2)*%
X135350000Y-77160000D03*
%TO.N,Net-(C10-Pad1)*%
X149650000Y-73860000D03*
%TO.N,Net-(C11-Pad2)*%
X135350000Y-79700000D03*
%TO.N,Net-(C11-Pad1)*%
X149810000Y-77060000D03*
%TO.N,Net-(C12-Pad2)*%
X135360000Y-82240000D03*
%TO.N,Net-(C12-Pad1)*%
X151970000Y-79330000D03*
%TO.N,Net-(C13-Pad1)*%
X177400000Y-75140000D03*
%TO.N,Net-(J5-Pad5)*%
X159290000Y-140400000D03*
X147300000Y-122975000D03*
%TO.N,Net-(J5-Pad4)*%
X161830000Y-140400000D03*
X149920000Y-122950000D03*
%TO.N,Net-(J5-Pad3)*%
X164370000Y-140400000D03*
X152400000Y-122925000D03*
%TO.N,Net-(J5-Pad2)*%
X166910000Y-140365000D03*
X154950000Y-122975000D03*
%TO.N,Net-(J10-Pad12)*%
X61000000Y-111760000D03*
X53690000Y-99870000D03*
%TO.N,Net-(J10-Pad11)*%
X61000000Y-114300000D03*
X53690000Y-97330000D03*
%TO.N,Net-(J10-Pad10)*%
X61000000Y-116840000D03*
X53690000Y-94790000D03*
%TO.N,Net-(J10-Pad9)*%
X61000000Y-119380000D03*
X53690000Y-92250000D03*
%TO.N,Net-(J10-Pad8)*%
X61000000Y-121920000D03*
X53690000Y-89710000D03*
%TO.N,Net-(J10-Pad7)*%
X61000000Y-124460000D03*
X53690000Y-87170000D03*
%TO.N,Net-(J10-Pad6)*%
X61000000Y-127000000D03*
X53690000Y-84630000D03*
%TO.N,Net-(J10-Pad5)*%
X61000000Y-129540000D03*
%TO.N,Net-(J10-Pad4)*%
X61000000Y-132080000D03*
X47140000Y-115570000D03*
X47140000Y-120070000D03*
%TO.N,Net-(J10-Pad3)*%
X61000000Y-134620000D03*
X47140000Y-125730000D03*
X47142500Y-130232500D03*
%TO.N,Net-(J10-Pad2)*%
X61000000Y-137160000D03*
X47140000Y-137160000D03*
X47140000Y-141660000D03*
%TO.N,Net-(J10-Pad1)*%
X61000000Y-139700000D03*
X40640000Y-141660000D03*
X40640000Y-137160000D03*
X40640000Y-130230000D03*
X40640000Y-125730000D03*
X40640000Y-120070000D03*
X40640000Y-115570000D03*
%TD*%
D26*
%TO.N,GND*%
X126500000Y-71040000D02*
X126460000Y-71000000D01*
X126500000Y-73000000D02*
X126500000Y-71040000D01*
X126460000Y-67000000D02*
X126460000Y-71000000D01*
X126460000Y-63000000D02*
X126460000Y-67000000D01*
X126460000Y-79000000D02*
X126460000Y-75000000D01*
X126460000Y-83000000D02*
X126460000Y-79000000D01*
X205750000Y-70790000D02*
X205750000Y-70790000D01*
X205750000Y-72750000D02*
X205750000Y-70790000D01*
X205790000Y-70750000D02*
X205790000Y-66750000D01*
X205790000Y-66750000D02*
X205790000Y-62750000D01*
X205790000Y-74750000D02*
X205790000Y-78750000D01*
X205790000Y-78750000D02*
X205790000Y-78750000D01*
X220790000Y-120770000D02*
X223730000Y-120770000D01*
X223730000Y-120770000D02*
X228000000Y-116500000D01*
X228000000Y-116500000D02*
X228000000Y-98000000D01*
X161290000Y-98806000D02*
X161290000Y-98806000D01*
X163830000Y-98806000D02*
X163830000Y-98806000D01*
X163830000Y-100305000D02*
X164275000Y-100750000D01*
X164275000Y-100750000D02*
X172050000Y-100750000D01*
X172720000Y-101420000D02*
X172720000Y-102870000D01*
X172050000Y-100750000D02*
X172720000Y-101420000D01*
X177260000Y-95540000D02*
X172050000Y-100750000D01*
X177260000Y-93610000D02*
X177260000Y-93610000D01*
X205790000Y-82750000D02*
X205790000Y-82750000D01*
X152950000Y-40600000D02*
X161160000Y-40600000D01*
X150850000Y-42700000D02*
X152950000Y-40600000D01*
X161160000Y-40600000D02*
X161160000Y-38990000D01*
X161160000Y-38990000D02*
X161875000Y-38275000D01*
X161875000Y-38275000D02*
X172400000Y-38275000D01*
X173440000Y-39315000D02*
X173440000Y-40650000D01*
X172400000Y-38275000D02*
X173440000Y-39315000D01*
X173440000Y-40650000D02*
X173440000Y-40840000D01*
X184200000Y-46050000D02*
X184250000Y-46100000D01*
X230250000Y-62750000D02*
X240000000Y-53000000D01*
X205790000Y-62750000D02*
X230250000Y-62750000D01*
X172720000Y-128270000D02*
X172720000Y-130570000D01*
X172720000Y-130570000D02*
X174050000Y-131900000D01*
X174050000Y-131900000D02*
X195050000Y-131900000D01*
X206180000Y-120770000D02*
X220790000Y-120770000D01*
X195050000Y-131900000D02*
X206180000Y-120770000D01*
X208650000Y-100750000D02*
X219700000Y-89700000D01*
X172050000Y-100750000D02*
X208650000Y-100750000D01*
X219700000Y-89700000D02*
X228000000Y-98000000D01*
X212750000Y-82750000D02*
X219700000Y-89700000D01*
X184975000Y-72750000D02*
X182225000Y-75500000D01*
X126460000Y-63000000D02*
X143410000Y-46050000D01*
X178800000Y-40650000D02*
X184250000Y-46100000D01*
X173440000Y-40650000D02*
X178800000Y-40650000D01*
X184250000Y-46100000D02*
X195850000Y-46100000D01*
X205790000Y-56040000D02*
X205790000Y-62750000D01*
X195850000Y-46100000D02*
X205790000Y-56040000D01*
X163830000Y-100305000D02*
X163795000Y-100305000D01*
X163795000Y-100305000D02*
X163500000Y-100600000D01*
X163500000Y-100600000D02*
X154125000Y-100600000D01*
X126460000Y-83000000D02*
X126460000Y-101235000D01*
X126460000Y-101235000D02*
X132750000Y-107525000D01*
X132750000Y-107525000D02*
X170300000Y-107525000D01*
X172720000Y-105105000D02*
X172720000Y-102870000D01*
X170300000Y-107525000D02*
X172720000Y-105105000D01*
D27*
X132750000Y-107800000D02*
X132750000Y-107525000D01*
D26*
X126460000Y-73040000D02*
X126500000Y-73000000D01*
X126460000Y-75000000D02*
X126460000Y-73040000D01*
X132125000Y-73725000D02*
X133020000Y-74620000D01*
X131375000Y-73725000D02*
X132125000Y-73725000D01*
X130690000Y-73040000D02*
X131375000Y-73725000D01*
X133020000Y-74620000D02*
X135350000Y-74620000D01*
X126460000Y-73040000D02*
X130690000Y-73040000D01*
X154125000Y-100600000D02*
X154075000Y-100600000D01*
X154075000Y-100600000D02*
X152700000Y-99225000D01*
X152700000Y-99225000D02*
X152700000Y-99225000D01*
X205790000Y-72790000D02*
X205750000Y-72750000D01*
X205790000Y-74750000D02*
X205790000Y-74750000D01*
X205790000Y-72790000D02*
X201085000Y-72790000D01*
X199505000Y-74370000D02*
X197250000Y-74370000D01*
X201085000Y-72790000D02*
X199505000Y-74370000D01*
X184975000Y-72750000D02*
X189650000Y-72750000D01*
X189650000Y-72750000D02*
X190625000Y-73725000D01*
X190625000Y-73725000D02*
X195200000Y-73725000D01*
X195845000Y-74370000D02*
X197250000Y-74370000D01*
X195200000Y-73725000D02*
X195845000Y-74370000D01*
X169450000Y-136500000D02*
X174050000Y-131900000D01*
X169450000Y-140400000D02*
X169450000Y-140400000D01*
X141510000Y-140400000D02*
X141510000Y-140400000D01*
X141510000Y-142785000D02*
X142950000Y-144225000D01*
X142950000Y-144225000D02*
X168325000Y-144225000D01*
X169450000Y-143100000D02*
X169450000Y-140400000D01*
X168325000Y-144225000D02*
X169450000Y-143100000D01*
X169450000Y-140400000D02*
X169450000Y-136500000D01*
X141510000Y-140400000D02*
X141510000Y-142785000D01*
X163830000Y-98806000D02*
X163830000Y-100305000D01*
X161290000Y-98806000D02*
X163830000Y-98806000D01*
X177260000Y-93610000D02*
X177260000Y-95540000D01*
X135350000Y-74620000D02*
X135350000Y-74620000D01*
X197250000Y-74370000D02*
X197250000Y-74370000D01*
X205790000Y-62750000D02*
X205790000Y-62750000D01*
X205790000Y-66750000D02*
X205790000Y-66750000D01*
X205750000Y-70790000D02*
X205790000Y-70750000D01*
X205790000Y-74750000D02*
X205790000Y-72790000D01*
X205790000Y-78750000D02*
X205790000Y-82750000D01*
X205790000Y-82750000D02*
X212750000Y-82750000D01*
X150850000Y-46550000D02*
X150850000Y-42700000D01*
X147500000Y-46050000D02*
X150850000Y-42700000D01*
X143410000Y-46050000D02*
X147500000Y-46050000D01*
%TO.N,Net-(C15-Pad1)*%
X176750000Y-56050000D02*
X180350000Y-56050000D01*
X184250000Y-52150000D02*
X184250000Y-48600000D01*
X180350000Y-56050000D02*
X184250000Y-52150000D01*
X176750000Y-56050000D02*
X176025000Y-56050000D01*
X176025000Y-56050000D02*
X173000000Y-59075000D01*
X173000000Y-59075000D02*
X173000000Y-61075000D01*
X173000000Y-61075000D02*
X173000000Y-61075000D01*
%TO.N,Net-(C16-Pad2)*%
X167550000Y-46550000D02*
X173100000Y-46550000D01*
X170950000Y-44400000D02*
X173100000Y-46550000D01*
X170950000Y-40700000D02*
X170950000Y-44400000D01*
X170900000Y-40650000D02*
X170950000Y-40700000D01*
%TO.N,Net-(C16-Pad1)*%
X170950000Y-61050000D02*
X170950000Y-58350000D01*
X173100000Y-56200000D02*
X173100000Y-48550000D01*
X170950000Y-58350000D02*
X173100000Y-56200000D01*
%TO.N,Net-(C17-Pad1)*%
X167550000Y-48550000D02*
X167550000Y-56750000D01*
X169100000Y-58300000D02*
X169100000Y-61050000D01*
X167550000Y-56750000D02*
X169100000Y-58300000D01*
%TO.N,Net-(C18-Pad2)*%
X161990000Y-46100000D02*
X162000000Y-46110000D01*
X162000000Y-46110000D02*
X162000000Y-44775000D01*
X163700000Y-43075000D02*
X163700000Y-40600000D01*
X162000000Y-44775000D02*
X163700000Y-43075000D01*
X161990000Y-46600000D02*
X162000000Y-46610000D01*
X156450000Y-46600000D02*
X161990000Y-46600000D01*
%TO.N,Net-(C18-Pad1)*%
X162000000Y-48610000D02*
X162000000Y-52850000D01*
X162000000Y-52850000D02*
X162000000Y-57870000D01*
X162000000Y-57870000D02*
X162000000Y-57870000D01*
%TO.N,Net-(C19-Pad1)*%
X157000000Y-57810000D02*
X157000000Y-57810000D01*
X157000000Y-57775000D02*
X157000000Y-57810000D01*
X156450000Y-48600000D02*
X156450000Y-52350000D01*
X157000000Y-52900000D02*
X157000000Y-57775000D01*
X156450000Y-52350000D02*
X157000000Y-52900000D01*
%TO.N,Net-(C20-Pad2)*%
X177260000Y-91610000D02*
X177260000Y-91610000D01*
X177260000Y-89790000D02*
X178970000Y-88080000D01*
X178970000Y-88080000D02*
X178970000Y-88080000D01*
X177260000Y-91610000D02*
X177260000Y-89790000D01*
%TO.N,Net-(C21-Pad2)*%
X171700000Y-91620000D02*
X171700000Y-91620000D01*
X171700000Y-89170000D02*
X172790000Y-88080000D01*
X172790000Y-88080000D02*
X172790000Y-88080000D01*
X171700000Y-91620000D02*
X171700000Y-89170000D01*
%TO.N,Net-(C21-Pad1)*%
X171680000Y-93600000D02*
X171700000Y-93620000D01*
X165950000Y-93600000D02*
X165950000Y-93600000D01*
X165950000Y-93600000D02*
X165950000Y-95075000D01*
X166370000Y-95495000D02*
X166370000Y-98806000D01*
X165950000Y-95075000D02*
X166370000Y-95495000D01*
X166370000Y-98806000D02*
X166370000Y-98806000D01*
X165950000Y-93600000D02*
X171680000Y-93600000D01*
X171700000Y-93620000D02*
X171700000Y-93620000D01*
%TO.N,Net-(C22-Pad2)*%
X165950000Y-91600000D02*
X165950000Y-91600000D01*
X165950000Y-88980000D02*
X166905000Y-88025000D01*
X166905000Y-88025000D02*
X166915000Y-88015000D01*
X166915000Y-88015000D02*
X166930000Y-88000000D01*
X165950000Y-91600000D02*
X165950000Y-88980000D01*
%TO.N,Net-(C23-Pad2)*%
X160270000Y-91610000D02*
X160270000Y-91610000D01*
X160270000Y-87980000D02*
X160270000Y-87980000D01*
X160270000Y-88105000D02*
X160270000Y-87980000D01*
X160270000Y-91610000D02*
X160270000Y-88105000D01*
%TO.N,Net-(C23-Pad1)*%
X160240000Y-93640000D02*
X160270000Y-93610000D01*
X154690000Y-93640000D02*
X154690000Y-93640000D01*
X160270000Y-93610000D02*
X160270000Y-95555000D01*
X158750000Y-97075000D02*
X158750000Y-98806000D01*
X160270000Y-95555000D02*
X158750000Y-97075000D01*
X158750000Y-98806000D02*
X158750000Y-98806000D01*
X160270000Y-93610000D02*
X160270000Y-93610000D01*
X154690000Y-93640000D02*
X160240000Y-93640000D01*
%TO.N,Net-(C24-Pad2)*%
X154690000Y-91640000D02*
X154690000Y-91640000D01*
X154690000Y-88110000D02*
X154690000Y-88110000D01*
X154690000Y-88135000D02*
X154690000Y-88110000D01*
X154690000Y-91640000D02*
X154690000Y-88135000D01*
%TO.N,+12V*%
X240000000Y-48000000D02*
X229175000Y-48000000D01*
X150850000Y-48550000D02*
X150850000Y-51450000D01*
X150850000Y-51450000D02*
X152350000Y-52950000D01*
X152350000Y-52950000D02*
X152350000Y-52950000D01*
X229175000Y-48000000D02*
X229175000Y-48000000D01*
%TO.N,3V3*%
X149895000Y-121075000D02*
X149920000Y-121050000D01*
X147300000Y-121075000D02*
X147300000Y-121075000D01*
X152375000Y-121050000D02*
X152400000Y-121025000D01*
X149920000Y-121050000D02*
X149920000Y-121050000D01*
X154900000Y-121025000D02*
X154950000Y-121075000D01*
X152400000Y-121025000D02*
X152400000Y-121025000D01*
X175260000Y-102870000D02*
X175260000Y-116440000D01*
X170625000Y-121075000D02*
X154950000Y-121075000D01*
X175260000Y-116440000D02*
X170625000Y-121075000D01*
X147300000Y-121075000D02*
X149895000Y-121075000D01*
X149920000Y-121050000D02*
X152375000Y-121050000D01*
X152400000Y-121025000D02*
X154900000Y-121025000D01*
X154950000Y-121075000D02*
X154950000Y-121075000D01*
%TO.N,SDA*%
X149860000Y-101085000D02*
X149860000Y-102870000D01*
X149860000Y-101085000D02*
X149860000Y-100185000D01*
X149860000Y-100185000D02*
X148450000Y-98775000D01*
X148450000Y-98775000D02*
X148450000Y-94200000D01*
X148450000Y-94200000D02*
X148450000Y-94200000D01*
%TO.N,SCL*%
X142240000Y-102870000D02*
X142240000Y-101135000D01*
X142240000Y-101135000D02*
X142240000Y-97160000D01*
X142240000Y-97160000D02*
X145350000Y-94050000D01*
X145350000Y-94050000D02*
X145350000Y-94050000D01*
%TO.N,5V*%
X175260000Y-128270000D02*
X192980000Y-128270000D01*
X215880000Y-105370000D02*
X220790000Y-105370000D01*
X192980000Y-128270000D02*
X215880000Y-105370000D01*
%TO.N,Net-(C1-Pad2)*%
X201250000Y-62750000D02*
X197250000Y-66750000D01*
X203250000Y-62750000D02*
X203250000Y-62750000D01*
X189500000Y-58250000D02*
X192525000Y-58250000D01*
X197250000Y-62975000D02*
X197250000Y-66750000D01*
X192525000Y-58250000D02*
X197250000Y-62975000D01*
X197250000Y-66750000D02*
X197250000Y-66750000D01*
X203250000Y-62750000D02*
X201250000Y-62750000D01*
%TO.N,Net-(C1-Pad1)*%
X187500000Y-58250000D02*
X186680000Y-58250000D01*
X186680000Y-58250000D02*
X182110000Y-62820000D01*
X182110000Y-62820000D02*
X182110000Y-62820000D01*
%TO.N,Net-(C2-Pad2)*%
X189500000Y-64000000D02*
X191625000Y-64000000D01*
X191625000Y-64000000D02*
X194475000Y-66850000D01*
X194475000Y-66850000D02*
X194475000Y-68700000D01*
X195065000Y-69290000D02*
X197250000Y-69290000D01*
X194475000Y-68700000D02*
X195065000Y-69290000D01*
X198235000Y-69290000D02*
X197250000Y-69290000D01*
X200775000Y-66750000D02*
X198235000Y-69290000D01*
X203250000Y-66750000D02*
X203250000Y-66750000D01*
X197250000Y-69290000D02*
X197250000Y-69290000D01*
X203250000Y-66750000D02*
X200775000Y-66750000D01*
%TO.N,Net-(C2-Pad1)*%
X187500000Y-64000000D02*
X185080000Y-64000000D01*
X185080000Y-64000000D02*
X182050000Y-67030000D01*
X182050000Y-67030000D02*
X182050000Y-67030000D01*
%TO.N,Net-(C3-Pad2)*%
X197250000Y-71830000D02*
X197295000Y-71830000D01*
X200025000Y-70750000D02*
X203250000Y-70750000D01*
X198945000Y-71830000D02*
X200025000Y-70750000D01*
X197295000Y-71830000D02*
X198945000Y-71830000D01*
X203250000Y-70750000D02*
X203250000Y-70750000D01*
X197250000Y-71830000D02*
X194455000Y-71830000D01*
X194455000Y-71830000D02*
X192950000Y-70325000D01*
X190075000Y-70325000D02*
X189500000Y-69750000D01*
X192950000Y-70325000D02*
X190075000Y-70325000D01*
%TO.N,Net-(C3-Pad1)*%
X187500000Y-69750000D02*
X183160000Y-69750000D01*
X183160000Y-69750000D02*
X182170000Y-70740000D01*
X182170000Y-70740000D02*
X182170000Y-70740000D01*
%TO.N,Net-(C4-Pad2)*%
X203250000Y-74750000D02*
X203250000Y-74750000D01*
X199765000Y-76910000D02*
X197250000Y-76910000D01*
X201925000Y-74750000D02*
X199765000Y-76910000D01*
X189500000Y-75500000D02*
X192900000Y-75500000D01*
X194310000Y-76910000D02*
X197250000Y-76910000D01*
X192900000Y-75500000D02*
X194310000Y-76910000D01*
X197250000Y-76910000D02*
X197250000Y-76910000D01*
X203250000Y-74750000D02*
X201925000Y-74750000D01*
%TO.N,Net-(C4-Pad1)*%
X187500000Y-75650000D02*
X187500000Y-75500000D01*
X184350000Y-78800000D02*
X184350000Y-78800000D01*
X184350000Y-78800000D02*
X187500000Y-75650000D01*
%TO.N,Net-(C5-Pad2)*%
X189500000Y-81250000D02*
X192275000Y-81250000D01*
X194075000Y-79450000D02*
X197250000Y-79450000D01*
X192275000Y-81250000D02*
X194075000Y-79450000D01*
X203250000Y-78750000D02*
X203250000Y-78750000D01*
X200425000Y-79450000D02*
X197250000Y-79450000D01*
X201125000Y-78750000D02*
X200425000Y-79450000D01*
X197250000Y-79450000D02*
X197250000Y-79450000D01*
X203250000Y-78750000D02*
X201125000Y-78750000D01*
%TO.N,Net-(C5-Pad1)*%
X187500000Y-81250000D02*
X184525000Y-81250000D01*
X184525000Y-81250000D02*
X184525000Y-81250000D01*
%TO.N,Net-(C6-Pad2)*%
X197250000Y-82175000D02*
X197250000Y-81990000D01*
X192175000Y-87250000D02*
X197250000Y-82175000D01*
X197250000Y-81990000D02*
X197250000Y-81990000D01*
X199825000Y-82750000D02*
X203250000Y-82750000D01*
X199065000Y-81990000D02*
X199825000Y-82750000D01*
X197250000Y-81990000D02*
X199065000Y-81990000D01*
X203250000Y-82750000D02*
X203250000Y-82750000D01*
X192175000Y-87250000D02*
X189500000Y-87250000D01*
%TO.N,Net-(C6-Pad1)*%
X183700000Y-87250000D02*
X183700000Y-87250000D01*
X183700000Y-87250000D02*
X187500000Y-87250000D01*
%TO.N,Net-(C7-Pad2)*%
X131350000Y-63000000D02*
X135350000Y-67000000D01*
X129000000Y-63000000D02*
X131350000Y-63000000D01*
X135350000Y-67000000D02*
X135350000Y-63375000D01*
X139975000Y-58750000D02*
X143250000Y-58750000D01*
X135350000Y-63375000D02*
X139975000Y-58750000D01*
X135350000Y-67000000D02*
X135350000Y-67000000D01*
%TO.N,Net-(C7-Pad1)*%
X145250000Y-58750000D02*
X150470000Y-58750000D01*
X150470000Y-58750000D02*
X153785000Y-62065000D01*
X153800000Y-62080000D02*
X153800000Y-62080000D01*
X153785000Y-62065000D02*
X153800000Y-62080000D01*
%TO.N,Net-(C8-Pad2)*%
X129000000Y-67000000D02*
X130450000Y-67000000D01*
X132990000Y-69540000D02*
X135350000Y-69540000D01*
X130450000Y-67000000D02*
X132990000Y-69540000D01*
X135350000Y-69540000D02*
X136835000Y-69540000D01*
X136835000Y-69540000D02*
X139050000Y-67325000D01*
X139050000Y-67325000D02*
X139050000Y-65450000D01*
X140000000Y-64500000D02*
X143250000Y-64500000D01*
X139050000Y-65450000D02*
X140000000Y-64500000D01*
X135350000Y-69540000D02*
X135350000Y-69540000D01*
%TO.N,Net-(C8-Pad1)*%
X145250000Y-64500000D02*
X148780000Y-64500000D01*
X148780000Y-64500000D02*
X149350000Y-64500000D01*
X149350000Y-64500000D02*
X152760000Y-67910000D01*
X152760000Y-67910000D02*
X152760000Y-67910000D01*
%TO.N,Net-(C9-Pad2)*%
X129000000Y-71000000D02*
X131150000Y-71000000D01*
X132230000Y-72080000D02*
X135350000Y-72080000D01*
X131150000Y-71000000D02*
X132230000Y-72080000D01*
X135350000Y-72080000D02*
X138020000Y-72080000D01*
X139850000Y-70250000D02*
X143250000Y-70250000D01*
X138020000Y-72080000D02*
X139850000Y-70250000D01*
X135350000Y-72080000D02*
X135350000Y-72080000D01*
%TO.N,Net-(C9-Pad1)*%
X145250000Y-70250000D02*
X149700000Y-70250000D01*
X149860000Y-70250000D02*
X149860000Y-70250000D01*
X149700000Y-70250000D02*
X149860000Y-70250000D01*
%TO.N,Net-(C10-Pad2)*%
X129000000Y-75000000D02*
X130450000Y-75000000D01*
X132610000Y-77160000D02*
X135350000Y-77160000D01*
X130450000Y-75000000D02*
X132610000Y-77160000D01*
X135350000Y-77160000D02*
X137890000Y-77160000D01*
X139050000Y-76000000D02*
X143250000Y-76000000D01*
X137890000Y-77160000D02*
X139050000Y-76000000D01*
X135350000Y-77160000D02*
X135350000Y-77160000D01*
%TO.N,Net-(C10-Pad1)*%
X145250000Y-76000000D02*
X147510000Y-76000000D01*
X147510000Y-76000000D02*
X149650000Y-73860000D01*
X149650000Y-73860000D02*
X149650000Y-73860000D01*
%TO.N,Net-(C11-Pad2)*%
X129000000Y-79000000D02*
X130875000Y-79000000D01*
X131575000Y-79700000D02*
X135350000Y-79700000D01*
X130875000Y-79000000D02*
X131575000Y-79700000D01*
X135350000Y-79700000D02*
X135350000Y-79700000D01*
X140550000Y-81750000D02*
X143250000Y-81750000D01*
X138500000Y-79700000D02*
X140550000Y-81750000D01*
X135350000Y-79700000D02*
X138500000Y-79700000D01*
%TO.N,Net-(C11-Pad1)*%
X145250000Y-81750000D02*
X147390000Y-81750000D01*
X147390000Y-81750000D02*
X149810000Y-79330000D01*
X149810000Y-79330000D02*
X149810000Y-77060000D01*
X149810000Y-77060000D02*
X149810000Y-77060000D01*
%TO.N,Net-(C12-Pad2)*%
X142250000Y-87500000D02*
X143000000Y-87500000D01*
X129000000Y-83000000D02*
X130900000Y-83000000D01*
X131660000Y-82240000D02*
X135350000Y-82240000D01*
X130900000Y-83000000D02*
X131660000Y-82240000D01*
X135350000Y-82240000D02*
X135360000Y-82240000D01*
X141950000Y-87500000D02*
X143500000Y-87500000D01*
X136690000Y-82240000D02*
X141950000Y-87500000D01*
X135360000Y-82240000D02*
X136690000Y-82240000D01*
%TO.N,Net-(C12-Pad1)*%
X145500000Y-87500000D02*
X145500000Y-86650000D01*
X145500000Y-86650000D02*
X151970000Y-80180000D01*
X151970000Y-80180000D02*
X151970000Y-79530000D01*
X151970000Y-79530000D02*
X151970000Y-79530000D01*
%TO.N,Net-(C13-Pad1)*%
X179725000Y-75500000D02*
X177760000Y-75500000D01*
X177760000Y-75500000D02*
X177400000Y-75140000D01*
X177400000Y-75140000D02*
X177400000Y-75140000D01*
%TO.N,Net-(J1-Pad2)*%
X260350000Y-115570000D02*
X250190000Y-115570000D01*
%TO.N,Net-(J1-Pad1)*%
X260270000Y-110570000D02*
X260350000Y-110490000D01*
X250190000Y-110570000D02*
X260270000Y-110570000D01*
%TO.N,Net-(J5-Pad5)*%
X147300000Y-128250000D02*
X147320000Y-128270000D01*
X147300000Y-122975000D02*
X147300000Y-122975000D01*
X147320000Y-128270000D02*
X147320000Y-131445000D01*
X147320000Y-131445000D02*
X152625000Y-136750000D01*
X152625000Y-136750000D02*
X159025000Y-136750000D01*
X159290000Y-137015000D02*
X159290000Y-140400000D01*
X159025000Y-136750000D02*
X159290000Y-137015000D01*
X159290000Y-140400000D02*
X159290000Y-140400000D01*
X147300000Y-122975000D02*
X147300000Y-128250000D01*
%TO.N,Net-(J5-Pad4)*%
X149920000Y-128210000D02*
X149860000Y-128270000D01*
X149920000Y-122950000D02*
X149920000Y-122950000D01*
X149860000Y-128270000D02*
X149860000Y-131060000D01*
X149860000Y-131060000D02*
X153950000Y-135150000D01*
X153950000Y-135150000D02*
X160500000Y-135150000D01*
X161830000Y-136480000D02*
X161830000Y-140400000D01*
X160500000Y-135150000D02*
X161830000Y-136480000D01*
X161830000Y-140400000D02*
X161830000Y-140400000D01*
X149920000Y-122950000D02*
X149920000Y-128210000D01*
%TO.N,Net-(J5-Pad3)*%
X152400000Y-122925000D02*
X152400000Y-122925000D01*
X152400000Y-128270000D02*
X152400000Y-130700000D01*
X152400000Y-130700000D02*
X155250000Y-133550000D01*
X155250000Y-133550000D02*
X161550000Y-133550000D01*
X164370000Y-136370000D02*
X164370000Y-140400000D01*
X161550000Y-133550000D02*
X164370000Y-136370000D01*
X164370000Y-140400000D02*
X164370000Y-140400000D01*
X152400000Y-122925000D02*
X152400000Y-128270000D01*
%TO.N,Net-(J5-Pad2)*%
X154950000Y-128260000D02*
X154940000Y-128270000D01*
X154950000Y-122975000D02*
X154950000Y-122975000D01*
X154940000Y-128270000D02*
X154940000Y-130240000D01*
X154940000Y-130240000D02*
X156375000Y-131675000D01*
X156375000Y-131675000D02*
X162425000Y-131675000D01*
X166910000Y-136160000D02*
X166910000Y-140365000D01*
X162425000Y-131675000D02*
X166910000Y-136160000D01*
X166910000Y-140365000D02*
X166910000Y-140400000D01*
X154950000Y-122975000D02*
X154950000Y-128260000D01*
%TO.N,Net-(J10-Pad12)*%
X61000000Y-111760000D02*
X61000000Y-111760000D01*
X59435000Y-111760000D02*
X57250000Y-109575000D01*
X57250000Y-103430000D02*
X53690000Y-99870000D01*
X57250000Y-109575000D02*
X57250000Y-103430000D01*
X61000000Y-111760000D02*
X59435000Y-111760000D01*
X53690000Y-99870000D02*
X53690000Y-99870000D01*
%TO.N,Net-(J10-Pad11)*%
X61000000Y-114300000D02*
X61000000Y-114300000D01*
X62075000Y-114300000D02*
X62875000Y-113500000D01*
X62875000Y-113500000D02*
X62875000Y-110375000D01*
X62875000Y-110375000D02*
X61475000Y-108975000D01*
X61475000Y-108975000D02*
X60825000Y-108975000D01*
X60825000Y-108975000D02*
X59300000Y-107450000D01*
X59300000Y-107450000D02*
X59300000Y-102175000D01*
X59300000Y-102175000D02*
X57125000Y-100000000D01*
X57125000Y-100000000D02*
X57125000Y-99325000D01*
X55130000Y-97330000D02*
X53690000Y-97330000D01*
X57125000Y-99325000D02*
X55130000Y-97330000D01*
X61000000Y-114300000D02*
X62075000Y-114300000D01*
X53690000Y-97330000D02*
X53690000Y-97330000D01*
%TO.N,Net-(J10-Pad10)*%
X61000000Y-116840000D02*
X61000000Y-116840000D01*
X61810000Y-116840000D02*
X64575000Y-114075000D01*
X64575000Y-114075000D02*
X64575000Y-109775000D01*
X64575000Y-109775000D02*
X61150000Y-106350000D01*
X61150000Y-106350000D02*
X61150000Y-103150000D01*
X61150000Y-103150000D02*
X60975000Y-102975000D01*
X60975000Y-102975000D02*
X60975000Y-100750000D01*
X60975000Y-100750000D02*
X58925000Y-98700000D01*
X58925000Y-98700000D02*
X58925000Y-97575000D01*
X56140000Y-94790000D02*
X53690000Y-94790000D01*
X58925000Y-97575000D02*
X56140000Y-94790000D01*
X61000000Y-116840000D02*
X61810000Y-116840000D01*
X53690000Y-94790000D02*
X53690000Y-94790000D01*
%TO.N,Net-(J10-Pad9)*%
X61000000Y-119380000D02*
X61000000Y-119380000D01*
X62470000Y-119380000D02*
X66300000Y-115550000D01*
X66300000Y-115550000D02*
X66300000Y-108275000D01*
X66300000Y-108275000D02*
X63000000Y-104975000D01*
X63000000Y-104975000D02*
X63000000Y-98525000D01*
X56725000Y-92250000D02*
X53690000Y-92250000D01*
X63000000Y-98525000D02*
X56725000Y-92250000D01*
X61000000Y-119380000D02*
X62470000Y-119380000D01*
X53690000Y-92250000D02*
X53690000Y-92250000D01*
%TO.N,Net-(J10-Pad8)*%
X61000000Y-121920000D02*
X61000000Y-121920000D01*
X58270000Y-121920000D02*
X57950000Y-121600000D01*
X57950000Y-121600000D02*
X57950000Y-117700000D01*
X57950000Y-117700000D02*
X54950000Y-114700000D01*
X54950000Y-109325000D02*
X53325000Y-107700000D01*
X54950000Y-114700000D02*
X54950000Y-109325000D01*
X53325000Y-107700000D02*
X53325000Y-102575000D01*
X53325000Y-102575000D02*
X48300000Y-97550000D01*
X48300000Y-97550000D02*
X48300000Y-92250000D01*
X50840000Y-89710000D02*
X53690000Y-89710000D01*
X48300000Y-92250000D02*
X50840000Y-89710000D01*
X61000000Y-121920000D02*
X58270000Y-121920000D01*
X53690000Y-89710000D02*
X53690000Y-89710000D01*
%TO.N,Net-(J10-Pad7)*%
X53690000Y-87170000D02*
X53690000Y-87170000D01*
X39405000Y-87170000D02*
X38300000Y-88275000D01*
X38300000Y-88275000D02*
X38300000Y-97750000D01*
X38300000Y-97750000D02*
X41825000Y-101275000D01*
X41825000Y-101275000D02*
X49100000Y-101275000D01*
X49100000Y-101275000D02*
X51425000Y-103600000D01*
X51425000Y-108325000D02*
X53450000Y-110350000D01*
X51425000Y-103600000D02*
X51425000Y-108325000D01*
X53450000Y-110350000D02*
X53450000Y-115750000D01*
X53450000Y-115750000D02*
X56250000Y-118550000D01*
X56685000Y-124460000D02*
X61000000Y-124460000D01*
X56250000Y-124025000D02*
X56685000Y-124460000D01*
X56250000Y-118550000D02*
X56250000Y-124025000D01*
X61000000Y-124460000D02*
X61000000Y-124460000D01*
X53690000Y-87170000D02*
X39405000Y-87170000D01*
%TO.N,Net-(J10-Pad6)*%
X61000000Y-127000000D02*
X61000000Y-127000000D01*
X55200000Y-127000000D02*
X54525000Y-126325000D01*
X54525000Y-126325000D02*
X54525000Y-119250000D01*
X54525000Y-119250000D02*
X51850000Y-116575000D01*
X51850000Y-116575000D02*
X51850000Y-111425000D01*
X51850000Y-111425000D02*
X49750000Y-109325000D01*
X49750000Y-109325000D02*
X49750000Y-104400000D01*
X49750000Y-104400000D02*
X48175000Y-102825000D01*
X48175000Y-102825000D02*
X41175000Y-102825000D01*
X41175000Y-102825000D02*
X36550000Y-98200000D01*
X36550000Y-98200000D02*
X36550000Y-86925000D01*
X38845000Y-84630000D02*
X53690000Y-84630000D01*
X36550000Y-86925000D02*
X38845000Y-84630000D01*
X61000000Y-127000000D02*
X55200000Y-127000000D01*
X53690000Y-84630000D02*
X53690000Y-84630000D01*
%TO.N,Net-(J10-Pad5)*%
X47140000Y-109910000D02*
X47140000Y-105410000D01*
X61000000Y-129540000D02*
X61000000Y-129540000D01*
X53365000Y-129540000D02*
X52450000Y-128625000D01*
X52450000Y-128625000D02*
X52450000Y-120450000D01*
X52450000Y-120450000D02*
X49800000Y-117800000D01*
X49800000Y-112570000D02*
X47140000Y-109910000D01*
X49800000Y-117800000D02*
X49800000Y-112570000D01*
X61000000Y-129540000D02*
X53365000Y-129540000D01*
%TO.N,Net-(J10-Pad4)*%
X61000000Y-132080000D02*
X61000000Y-132080000D01*
X52205000Y-132080000D02*
X50525000Y-130400000D01*
X50525000Y-123455000D02*
X47140000Y-120070000D01*
X50525000Y-130400000D02*
X50525000Y-123455000D01*
X47140000Y-120070000D02*
X47140000Y-115570000D01*
X61000000Y-132080000D02*
X52205000Y-132080000D01*
X47140000Y-115570000D02*
X47140000Y-115570000D01*
X47140000Y-120070000D02*
X47140000Y-120070000D01*
%TO.N,Net-(J10-Pad3)*%
X51530000Y-134620000D02*
X47142500Y-130232500D01*
X61000000Y-134620000D02*
X61000000Y-134620000D01*
X47140000Y-130230000D02*
X47140000Y-125730000D01*
X61000000Y-134620000D02*
X51530000Y-134620000D01*
X47140000Y-125730000D02*
X47140000Y-125730000D01*
X47142500Y-130232500D02*
X47140000Y-130230000D01*
%TO.N,Net-(J10-Pad2)*%
X47140000Y-141660000D02*
X47140000Y-137160000D01*
X57015000Y-137160000D02*
X61000000Y-137160000D01*
X52515000Y-141660000D02*
X57015000Y-137160000D01*
X47140000Y-141660000D02*
X47140000Y-141660000D01*
X61000000Y-137160000D02*
X61000000Y-137160000D01*
X47140000Y-137160000D02*
X47140000Y-137160000D01*
X47140000Y-141660000D02*
X52515000Y-141660000D01*
%TO.N,Net-(J10-Pad1)*%
X40640000Y-105410000D02*
X40640000Y-109910000D01*
X40640000Y-109910000D02*
X40640000Y-115570000D01*
X40640000Y-115570000D02*
X40640000Y-120070000D01*
X40640000Y-120070000D02*
X40640000Y-125730000D01*
X40640000Y-125730000D02*
X40640000Y-130230000D01*
X40640000Y-130230000D02*
X40640000Y-137160000D01*
X40640000Y-137160000D02*
X40640000Y-141660000D01*
X40640000Y-141660000D02*
X44230000Y-145250000D01*
X44230000Y-145250000D02*
X49975000Y-145250000D01*
X49975000Y-145250000D02*
X51225000Y-144000000D01*
X51225000Y-144000000D02*
X59100000Y-144000000D01*
X61000000Y-142100000D02*
X61000000Y-139700000D01*
X59100000Y-144000000D02*
X61000000Y-142100000D01*
X61000000Y-139700000D02*
X61000000Y-139700000D01*
X40640000Y-141660000D02*
X40640000Y-141660000D01*
X40640000Y-137160000D02*
X40640000Y-137160000D01*
X40640000Y-130230000D02*
X40640000Y-130230000D01*
X40640000Y-125730000D02*
X40640000Y-125730000D01*
X40640000Y-120070000D02*
X40640000Y-120070000D01*
X40640000Y-115570000D02*
X40640000Y-115570000D01*
%TD*%
M02*
