<?xml version="1.0" standalone="no"?>
 <!DOCTYPE svg PUBLIC "-//W3C//DTD SVG 1.1//EN" 
 "http://www.w3.org/Graphics/SVG/1.1/DTD/svg11.dtd"> 
<svg
  xmlns:svg="http://www.w3.org/2000/svg"
  xmlns="http://www.w3.org/2000/svg"
  xmlns:xlink="http://www.w3.org/1999/xlink"
  version="1.1"
  width="29.700220cm" height="21.000720cm" viewBox="0 0 116930 82680">
<title>SVG Picture created as SabVolAudio-F_Mask.svg date 2021/09/10 17:03:59 </title>
  <desc>Picture generated by PCBNEW </desc>
<g style="fill:#000000; fill-opacity:1;stroke:#000000; stroke-opacity:1;
stroke-linecap:round; stroke-linejoin:round;"
 transform="translate(0 0) scale(1 1)">
</g>
<g style="fill:#000000; fill-opacity:0.0; 
stroke:#000000; stroke-width:-0.000393701; stroke-opacity:1; 
stroke-linecap:round; stroke-linejoin:round;">
<g >
</g>
<g style="fill:#000000; fill-opacity:0.0; 
stroke:#000000; stroke-width:0; stroke-opacity:1; 
stroke-linecap:round; stroke-linejoin:round;">
</g>
<g style="fill:#000000; fill-opacity:1.0; 
stroke:#000000; stroke-width:0; stroke-opacity:1; 
stroke-linecap:round; stroke-linejoin:round;">
<path style="fill:#000000; fill-opacity:1.0; 
stroke:#000000; stroke-width:0; stroke-opacity:1; 
stroke-linecap:round; stroke-linejoin:round;fill-rule:evenodd;"
d="M 63526,32458.9
63531.2,32459.7
63536.4,32461
63541.4,32462.8
63546.2,32465.1
63550.7,32467.8
63555,32470.9
63558.9,32474.5
63562.5,32478.5
63565.7,32482.7
63568.4,32487.3
63570.7,32492.1
63572.5,32497.1
63573.8,32502.2
63574.5,32507.5
63574.8,32512.8
63574.8,32621.1
63574.5,32626.4
63573.8,32631.6
63572.5,32636.8
63570.7,32641.8
63568.4,32646.6
63565.7,32651.1
63562.5,32655.4
63558.9,32659.3
63555,32662.9
63550.7,32666.1
63546.2,32668.8
63541.4,32671.1
63536.4,32672.9
63531.2,32674.2
63526,32674.9
63520.7,32675.2
62841.5,32675.2
62836.2,32674.9
62831,32674.2
62825.8,32672.9
62820.8,32671.1
62816,32668.8
62811.5,32666.1
62807.2,32662.9
62803.3,32659.3
62799.7,32655.4
62796.5,32651.1
62793.8,32646.6
62791.5,32641.8
62789.7,32636.8
62788.4,32631.6
62787.7,32626.4
62787.4,32621.1
62787.4,32512.8
62787.7,32507.5
62788.4,32502.2
62789.7,32497.1
62791.5,32492.1
62793.8,32487.3
62796.5,32482.7
62799.7,32478.5
62803.3,32474.5
62807.2,32470.9
62811.5,32467.8
62816,32465.1
62820.8,32462.8
62825.8,32461
62831,32459.7
62836.2,32458.9
62841.5,32458.7
63520.7,32458.7
Z" /> 
<path style="fill:#000000; fill-opacity:1.0; 
stroke:#000000; stroke-width:0; stroke-opacity:1; 
stroke-linecap:round; stroke-linejoin:round;fill-rule:evenodd;"
d="M 63533.8,31990.4
63539.1,31991.2
63544.3,31992.5
63549.3,31994.3
63554.1,31996.5
63558.6,31999.3
63562.9,32002.4
63566.8,32006
63570.4,32009.9
63573.6,32014.2
63576.3,32018.8
63578.6,32023.6
63580.3,32028.6
63581.6,32033.7
63582.4,32039
63582.7,32044.3
63582.7,32152.6
63582.4,32157.9
63581.6,32163.1
63580.3,32168.3
63578.6,32173.3
63576.3,32178.1
63573.6,32182.6
63570.4,32186.9
63566.8,32190.8
63562.9,32194.4
63558.6,32197.6
63554.1,32200.3
63549.3,32202.6
63544.3,32204.4
63539.1,32205.7
63533.8,32206.4
63528.5,32206.7
62849.4,32206.7
62844.1,32206.4
62838.8,32205.7
62833.7,32204.4
62828.7,32202.6
62823.9,32200.3
62819.3,32197.6
62815.1,32194.4
62811.1,32190.8
62807.6,32186.9
62804.4,32182.6
62801.7,32178.1
62799.4,32173.3
62797.6,32168.3
62796.3,32163.1
62795.5,32157.9
62795.3,32152.6
62795.3,32044.3
62795.5,32039
62796.3,32033.7
62797.6,32028.6
62799.4,32023.6
62801.7,32018.8
62804.4,32014.2
62807.6,32009.9
62811.1,32006
62815.1,32002.4
62819.3,31999.3
62823.9,31996.5
62828.7,31994.3
62833.7,31992.5
62838.8,31991.2
62844.1,31990.4
62849.4,31990.2
63528.5,31990.2
Z" /> 
<path style="fill:#000000; fill-opacity:1.0; 
stroke:#000000; stroke-width:0; stroke-opacity:1; 
stroke-linecap:round; stroke-linejoin:round;fill-rule:evenodd;"
d="M 63533.8,31537.7
63539.1,31538.4
63544.3,31539.7
63549.3,31541.5
63554.1,31543.8
63558.6,31546.5
63562.9,31549.7
63566.8,31553.3
63570.4,31557.2
63573.6,31561.5
63576.3,31566
63578.6,31570.8
63580.3,31575.8
63581.6,31581
63582.4,31586.2
63582.7,31591.5
63582.7,31699.8
63582.4,31705.1
63581.6,31710.4
63580.3,31715.5
63578.6,31720.5
63576.3,31725.3
63573.6,31729.9
63570.4,31734.1
63566.8,31738.1
63562.9,31741.6
63558.6,31744.8
63554.1,31747.5
63549.3,31749.8
63544.3,31751.6
63539.1,31752.9
63533.8,31753.7
63528.5,31753.9
62849.4,31753.9
62844.1,31753.7
62838.8,31752.9
62833.7,31751.6
62828.7,31749.8
62823.9,31747.5
62819.3,31744.8
62815.1,31741.6
62811.1,31738.1
62807.6,31734.1
62804.4,31729.9
62801.7,31725.3
62799.4,31720.5
62797.6,31715.5
62796.3,31710.4
62795.5,31705.1
62795.3,31699.8
62795.3,31591.5
62795.5,31586.2
62796.3,31581
62797.6,31575.8
62799.4,31570.8
62801.7,31566
62804.4,31561.5
62807.6,31557.2
62811.1,31553.3
62815.1,31549.7
62819.3,31546.5
62823.9,31543.8
62828.7,31541.5
62833.7,31539.7
62838.8,31538.4
62844.1,31537.7
62849.4,31537.4
63528.5,31537.4
Z" /> 
<path style="fill:#000000; fill-opacity:1.0; 
stroke:#000000; stroke-width:0; stroke-opacity:1; 
stroke-linecap:round; stroke-linejoin:round;fill-rule:evenodd;"
d="M 63529.9,31033.7
63535.2,31034.5
63540.3,31035.8
63545.3,31037.6
63550.1,31039.9
63554.7,31042.6
63558.9,31045.8
63562.9,31049.3
63566.5,31053.3
63569.6,31057.5
63572.3,31062.1
63574.6,31066.9
63576.4,31071.9
63577.7,31077
63578.5,31082.3
63578.7,31087.6
63578.7,31195.9
63578.5,31201.2
63577.7,31206.4
63576.4,31211.6
63574.6,31216.6
63572.3,31221.4
63569.6,31225.9
63566.5,31230.2
63562.9,31234.1
63558.9,31237.7
63554.7,31240.9
63550.1,31243.6
63545.3,31245.9
63540.3,31247.7
63535.2,31249
63529.9,31249.7
63524.6,31250
62845.5,31250
62840.2,31249.7
62834.9,31249
62829.8,31247.7
62824.8,31245.9
62820,31243.6
62815.4,31240.9
62811.1,31237.7
62807.2,31234.1
62803.6,31230.2
62800.5,31225.9
62797.7,31221.4
62795.5,31216.6
62793.7,31211.6
62792.4,31206.4
62791.6,31201.2
62791.3,31195.9
62791.3,31087.6
62791.6,31082.3
62792.4,31077
62793.7,31071.9
62795.5,31066.9
62797.7,31062.1
62800.5,31057.5
62803.6,31053.3
62807.2,31049.3
62811.1,31045.8
62815.4,31042.6
62820,31039.9
62824.8,31037.6
62829.8,31035.8
62834.9,31034.5
62840.2,31033.7
62845.5,31033.5
63524.6,31033.5
Z" /> 
<path style="fill:#000000; fill-opacity:1.0; 
stroke:#000000; stroke-width:0; stroke-opacity:1; 
stroke-linecap:round; stroke-linejoin:round;fill-rule:evenodd;"
d="M 63529.9,30521.9
63535.2,30522.7
63540.3,30524
63545.3,30525.8
63550.1,30528
63554.7,30530.8
63558.9,30533.9
63562.9,30537.5
63566.5,30541.4
63569.6,30545.7
63572.3,30550.3
63574.6,30555.1
63576.4,30560.1
63577.7,30565.2
63578.5,30570.5
63578.7,30575.8
63578.7,30684.1
63578.5,30689.4
63577.7,30694.6
63576.4,30699.8
63574.6,30704.8
63572.3,30709.6
63569.6,30714.1
63566.5,30718.4
63562.9,30722.3
63558.9,30725.9
63554.7,30729.1
63550.1,30731.8
63545.3,30734.1
63540.3,30735.9
63535.2,30737.1
63529.9,30737.9
63524.6,30738.2
62845.5,30738.2
62840.2,30737.9
62834.9,30737.1
62829.8,30735.9
62824.8,30734.1
62820,30731.8
62815.4,30729.1
62811.1,30725.9
62807.2,30722.3
62803.6,30718.4
62800.5,30714.1
62797.7,30709.6
62795.5,30704.8
62793.7,30699.8
62792.4,30694.6
62791.6,30689.4
62791.3,30684.1
62791.3,30575.8
62791.6,30570.5
62792.4,30565.2
62793.7,30560.1
62795.5,30555.1
62797.7,30550.3
62800.5,30545.7
62803.6,30541.4
62807.2,30537.5
62811.1,30533.9
62815.4,30530.8
62820,30528
62824.8,30525.8
62829.8,30524
62834.9,30522.7
62840.2,30521.9
62845.5,30521.7
63524.6,30521.7
Z" /> 
<path style="fill:#000000; fill-opacity:1.0; 
stroke:#000000; stroke-width:0; stroke-opacity:1; 
stroke-linecap:round; stroke-linejoin:round;fill-rule:evenodd;"
d="M 63529.9,30002.2
63535.2,30003
63540.3,30004.3
63545.3,30006.1
63550.1,30008.4
63554.7,30011.1
63558.9,30014.3
63562.9,30017.8
63566.5,30021.8
63569.6,30026
63572.3,30030.6
63574.6,30035.4
63576.4,30040.4
63577.7,30045.5
63578.5,30050.8
63578.7,30056.1
63578.7,30164.4
63578.5,30169.7
63577.7,30174.9
63576.4,30180.1
63574.6,30185.1
63572.3,30189.9
63569.6,30194.4
63566.5,30198.7
63562.9,30202.6
63558.9,30206.2
63554.7,30209.4
63550.1,30212.1
63545.3,30214.4
63540.3,30216.2
63535.2,30217.5
63529.9,30218.2
63524.6,30218.5
62845.5,30218.5
62840.2,30218.2
62834.9,30217.5
62829.8,30216.2
62824.8,30214.4
62820,30212.1
62815.4,30209.4
62811.1,30206.2
62807.2,30202.6
62803.6,30198.7
62800.5,30194.4
62797.7,30189.9
62795.5,30185.1
62793.7,30180.1
62792.4,30174.9
62791.6,30169.7
62791.3,30164.4
62791.3,30056.1
62791.6,30050.8
62792.4,30045.5
62793.7,30040.4
62795.5,30035.4
62797.7,30030.6
62800.5,30026
62803.6,30021.8
62807.2,30017.8
62811.1,30014.3
62815.4,30011.1
62820,30008.4
62824.8,30006.1
62829.8,30004.3
62834.9,30003
62840.2,30002.2
62845.5,30002
63524.6,30002
Z" /> 
<path style="fill:#000000; fill-opacity:1.0; 
stroke:#000000; stroke-width:0; stroke-opacity:1; 
stroke-linecap:round; stroke-linejoin:round;fill-rule:evenodd;"
d="M 63522,29498.3
63527.3,29499.1
63532.4,29500.4
63537.4,29502.2
63542.3,29504.4
63546.8,29507.2
63551.1,29510.3
63555,29513.9
63558.6,29517.8
63561.7,29522.1
63564.5,29526.6
63566.7,29531.4
63568.5,29536.5
63569.8,29541.6
63570.6,29546.9
63570.9,29552.2
63570.9,29660.4
63570.6,29665.7
63569.8,29671
63568.5,29676.1
63566.7,29681.1
63564.5,29686
63561.7,29690.5
63558.6,29694.8
63555,29698.7
63551.1,29702.3
63546.8,29705.4
63542.3,29708.2
63537.4,29710.4
63532.4,29712.2
63527.3,29713.5
63522,29714.3
63516.7,29714.6
62837.6,29714.6
62832.3,29714.3
62827,29713.5
62821.9,29712.2
62816.9,29710.4
62812.1,29708.2
62807.5,29705.4
62803.3,29702.3
62799.3,29698.7
62795.8,29694.8
62792.6,29690.5
62789.9,29686
62787.6,29681.1
62785.8,29676.1
62784.5,29671
62783.7,29665.7
62783.5,29660.4
62783.5,29552.2
62783.7,29546.9
62784.5,29541.6
62785.8,29536.5
62787.6,29531.4
62789.9,29526.6
62792.6,29522.1
62795.8,29517.8
62799.3,29513.9
62803.3,29510.3
62807.5,29507.2
62812.1,29504.4
62816.9,29502.2
62821.9,29500.4
62827,29499.1
62832.3,29498.3
62837.6,29498
63516.7,29498
Z" /> 
<path style="fill:#000000; fill-opacity:1.0; 
stroke:#000000; stroke-width:0; stroke-opacity:1; 
stroke-linecap:round; stroke-linejoin:round;fill-rule:evenodd;"
d="M 63533.8,28990.4
63539.1,28991.2
63544.3,28992.5
63549.3,28994.3
63554.1,28996.5
63558.6,28999.3
63562.9,29002.4
63566.8,29006
63570.4,29009.9
63573.6,29014.2
63576.3,29018.8
63578.6,29023.6
63580.3,29028.6
63581.6,29033.7
63582.4,29039
63582.7,29044.3
63582.7,29152.6
63582.4,29157.9
63581.6,29163.1
63580.3,29168.3
63578.6,29173.3
63576.3,29178.1
63573.6,29182.6
63570.4,29186.9
63566.8,29190.8
63562.9,29194.4
63558.6,29197.6
63554.1,29200.3
63549.3,29202.6
63544.3,29204.4
63539.1,29205.7
63533.8,29206.4
63528.5,29206.7
62849.4,29206.7
62844.1,29206.4
62838.8,29205.7
62833.7,29204.4
62828.7,29202.6
62823.9,29200.3
62819.3,29197.6
62815.1,29194.4
62811.1,29190.8
62807.6,29186.9
62804.4,29182.6
62801.7,29178.1
62799.4,29173.3
62797.6,29168.3
62796.3,29163.1
62795.5,29157.9
62795.3,29152.6
62795.3,29044.3
62795.5,29039
62796.3,29033.7
62797.6,29028.6
62799.4,29023.6
62801.7,29018.8
62804.4,29014.2
62807.6,29009.9
62811.1,29006
62815.1,29002.4
62819.3,28999.3
62823.9,28996.5
62828.7,28994.3
62833.7,28992.5
62838.8,28991.2
62844.1,28990.4
62849.4,28990.2
63528.5,28990.2
Z" /> 
<path style="fill:#000000; fill-opacity:1.0; 
stroke:#000000; stroke-width:0; stroke-opacity:1; 
stroke-linecap:round; stroke-linejoin:round;fill-rule:evenodd;"
d="M 63537.8,28478.6
63543,28479.4
63548.2,28480.7
63553.2,28482.5
63558,28484.7
63562.6,28487.5
63566.8,28490.6
63570.8,28494.2
63574.3,28498.1
63577.5,28502.4
63580.2,28507
63582.5,28511.8
63584.3,28516.8
63585.6,28521.9
63586.4,28527.2
63586.6,28532.5
63586.6,28640.7
63586.4,28646.1
63585.6,28651.3
63584.3,28656.5
63582.5,28661.5
63580.2,28666.3
63577.5,28670.8
63574.3,28675.1
63570.8,28679
63566.8,28682.6
63562.6,28685.8
63558,28688.5
63553.2,28690.8
63548.2,28692.6
63543,28693.8
63537.8,28694.6
63532.5,28694.9
62853.3,28694.9
62848,28694.6
62842.8,28693.8
62837.6,28692.6
62832.6,28690.8
62827.8,28688.5
62823.3,28685.8
62819,28682.6
62815.1,28679
62811.5,28675.1
62808.3,28670.8
62805.6,28666.3
62803.3,28661.5
62801.5,28656.5
62800.3,28651.3
62799.5,28646.1
62799.2,28640.7
62799.2,28532.5
62799.5,28527.2
62800.3,28521.9
62801.5,28516.8
62803.3,28511.8
62805.6,28507
62808.3,28502.4
62811.5,28498.1
62815.1,28494.2
62819,28490.6
62823.3,28487.5
62827.8,28484.7
62832.6,28482.5
62837.6,28480.7
62842.8,28479.4
62848,28478.6
62853.3,28478.3
63532.5,28478.3
Z" /> 
<path style="fill:#000000; fill-opacity:1.0; 
stroke:#000000; stroke-width:0; stroke-opacity:1; 
stroke-linecap:round; stroke-linejoin:round;fill-rule:evenodd;"
d="M 63533.8,28006.2
63539.1,28006.9
63544.3,28008.2
63549.3,28010
63554.1,28012.3
63558.6,28015
63562.9,28018.2
63566.8,28021.8
63570.4,28025.7
63573.6,28030
63576.3,28034.5
63578.6,28039.3
63580.3,28044.3
63581.6,28049.5
63582.4,28054.7
63582.7,28060
63582.7,28168.3
63582.4,28173.6
63581.6,28178.9
63580.3,28184
63578.6,28189
63576.3,28193.8
63573.6,28198.4
63570.4,28202.6
63566.8,28206.6
63562.9,28210.2
63558.6,28213.3
63554.1,28216
63549.3,28218.3
63544.3,28220.1
63539.1,28221.4
63533.8,28222.2
63528.5,28222.4
62849.4,28222.4
62844.1,28222.2
62838.8,28221.4
62833.7,28220.1
62828.7,28218.3
62823.9,28216
62819.3,28213.3
62815.1,28210.2
62811.1,28206.6
62807.6,28202.6
62804.4,28198.4
62801.7,28193.8
62799.4,28189
62797.6,28184
62796.3,28178.9
62795.5,28173.6
62795.3,28168.3
62795.3,28060
62795.5,28054.7
62796.3,28049.5
62797.6,28044.3
62799.4,28039.3
62801.7,28034.5
62804.4,28030
62807.6,28025.7
62811.1,28021.8
62815.1,28018.2
62819.3,28015
62823.9,28012.3
62828.7,28010
62833.7,28008.2
62838.8,28006.9
62844.1,28006.2
62849.4,28005.9
63528.5,28005.9
Z" /> 
<path style="fill:#000000; fill-opacity:1.0; 
stroke:#000000; stroke-width:0; stroke-opacity:1; 
stroke-linecap:round; stroke-linejoin:round;fill-rule:evenodd;"
d="M 63537.8,27494.4
63543,27495.1
63548.2,27496.4
63553.2,27498.2
63558,27500.5
63562.6,27503.2
63566.8,27506.4
63570.8,27510
63574.3,27513.9
63577.5,27518.2
63580.2,27522.7
63582.5,27527.5
63584.3,27532.5
63585.6,27537.7
63586.4,27542.9
63586.6,27548.2
63586.6,27656.5
63586.4,27661.8
63585.6,27667.1
63584.3,27672.2
63582.5,27677.2
63580.2,27682
63577.5,27686.6
63574.3,27690.8
63570.8,27694.8
63566.8,27698.3
63562.6,27701.5
63558,27704.2
63553.2,27706.5
63548.2,27708.3
63543,27709.6
63537.8,27710.4
63532.5,27710.6
62853.3,27710.6
62848,27710.4
62842.8,27709.6
62837.6,27708.3
62832.6,27706.5
62827.8,27704.2
62823.3,27701.5
62819,27698.3
62815.1,27694.8
62811.5,27690.8
62808.3,27686.6
62805.6,27682
62803.3,27677.2
62801.5,27672.2
62800.3,27667.1
62799.5,27661.8
62799.2,27656.5
62799.2,27548.2
62799.5,27542.9
62800.3,27537.7
62801.5,27532.5
62803.3,27527.5
62805.6,27522.7
62808.3,27518.2
62811.5,27513.9
62815.1,27510
62819,27506.4
62823.3,27503.2
62827.8,27500.5
62832.6,27498.2
62837.6,27496.4
62842.8,27495.1
62848,27494.4
62853.3,27494.1
63532.5,27494.1
Z" /> 
<path style="fill:#000000; fill-opacity:1.0; 
stroke:#000000; stroke-width:0; stroke-opacity:1; 
stroke-linecap:round; stroke-linejoin:round;fill-rule:evenodd;"
d="M 63514.2,26978.6
63519.4,26979.4
63524.6,26980.7
63529.6,26982.5
63534.4,26984.7
63538.9,26987.5
63543.2,26990.6
63547.1,26994.2
63550.7,26998.1
63553.9,27002.4
63556.6,27007
63558.9,27011.8
63560.7,27016.8
63562,27021.9
63562.7,27027.2
63563,27032.5
63563,27140.7
63562.7,27146.1
63562,27151.3
63560.7,27156.5
63558.9,27161.5
63556.6,27166.3
63553.9,27170.8
63550.7,27175.1
63547.1,27179
63543.2,27182.6
63538.9,27185.8
63534.4,27188.5
63529.6,27190.8
63524.6,27192.6
63519.4,27193.8
63514.2,27194.6
63508.9,27194.9
62829.7,27194.9
62824.4,27194.6
62819.2,27193.8
62814,27192.6
62809,27190.8
62804.2,27188.5
62799.6,27185.8
62795.4,27182.6
62791.4,27179
62787.9,27175.1
62784.7,27170.8
62782,27166.3
62779.7,27161.5
62777.9,27156.5
62776.6,27151.3
62775.9,27146.1
62775.6,27140.7
62775.6,27032.5
62775.9,27027.2
62776.6,27021.9
62777.9,27016.8
62779.7,27011.8
62782,27007
62784.7,27002.4
62787.9,26998.1
62791.4,26994.2
62795.4,26990.6
62799.6,26987.5
62804.2,26984.7
62809,26982.5
62814,26980.7
62819.2,26979.4
62824.4,26978.6
62829.7,26978.3
63508.9,26978.3
Z" /> 
<path style="fill:#000000; fill-opacity:1.0; 
stroke:#000000; stroke-width:0; stroke-opacity:1; 
stroke-linecap:round; stroke-linejoin:round;fill-rule:evenodd;"
d="M 63526,26506.2
63531.2,26506.9
63536.4,26508.2
63541.4,26510
63546.2,26512.3
63550.7,26515
63555,26518.2
63558.9,26521.8
63562.5,26525.7
63565.7,26530
63568.4,26534.5
63570.7,26539.3
63572.5,26544.3
63573.8,26549.5
63574.5,26554.7
63574.8,26560
63574.8,26668.3
63574.5,26673.6
63573.8,26678.9
63572.5,26684
63570.7,26689
63568.4,26693.8
63565.7,26698.4
63562.5,26702.6
63558.9,26706.6
63555,26710.2
63550.7,26713.3
63546.2,26716
63541.4,26718.3
63536.4,26720.1
63531.2,26721.4
63526,26722.2
63520.7,26722.4
62841.5,26722.4
62836.2,26722.2
62831,26721.4
62825.8,26720.1
62820.8,26718.3
62816,26716
62811.5,26713.3
62807.2,26710.2
62803.3,26706.6
62799.7,26702.6
62796.5,26698.4
62793.8,26693.8
62791.5,26689
62789.7,26684
62788.4,26678.9
62787.7,26673.6
62787.4,26668.3
62787.4,26560
62787.7,26554.7
62788.4,26549.5
62789.7,26544.3
62791.5,26539.3
62793.8,26534.5
62796.5,26530
62799.7,26525.7
62803.3,26521.8
62807.2,26518.2
62811.5,26515
62816,26512.3
62820.8,26510
62825.8,26508.2
62831,26506.9
62836.2,26506.2
62841.5,26505.9
63520.7,26505.9
Z" /> 
<path style="fill:#000000; fill-opacity:1.0; 
stroke:#000000; stroke-width:0; stroke-opacity:1; 
stroke-linecap:round; stroke-linejoin:round;fill-rule:evenodd;"
d="M 63529.9,26002.2
63535.2,26003
63540.3,26004.3
63545.3,26006.1
63550.1,26008.4
63554.7,26011.1
63558.9,26014.3
63562.9,26017.8
63566.5,26021.8
63569.6,26026
63572.3,26030.6
63574.6,26035.4
63576.4,26040.4
63577.7,26045.5
63578.5,26050.8
63578.7,26056.1
63578.7,26164.4
63578.5,26169.7
63577.7,26174.9
63576.4,26180.1
63574.6,26185.1
63572.3,26189.9
63569.6,26194.4
63566.5,26198.7
63562.9,26202.6
63558.9,26206.2
63554.7,26209.4
63550.1,26212.1
63545.3,26214.4
63540.3,26216.2
63535.2,26217.5
63529.9,26218.2
63524.6,26218.5
62845.5,26218.5
62840.2,26218.2
62834.9,26217.5
62829.8,26216.2
62824.8,26214.4
62820,26212.1
62815.4,26209.4
62811.1,26206.2
62807.2,26202.6
62803.6,26198.7
62800.5,26194.4
62797.7,26189.9
62795.5,26185.1
62793.7,26180.1
62792.4,26174.9
62791.6,26169.7
62791.3,26164.4
62791.3,26056.1
62791.6,26050.8
62792.4,26045.5
62793.7,26040.4
62795.5,26035.4
62797.7,26030.6
62800.5,26026
62803.6,26021.8
62807.2,26017.8
62811.1,26014.3
62815.4,26011.1
62820,26008.4
62824.8,26006.1
62829.8,26004.3
62834.9,26003
62840.2,26002.2
62845.5,26002
63524.6,26002
Z" /> 
<path style="fill:#000000; fill-opacity:1.0; 
stroke:#000000; stroke-width:0; stroke-opacity:1; 
stroke-linecap:round; stroke-linejoin:round;fill-rule:evenodd;"
d="M 68131.3,25962.9
68137.5,25963.8
68143.6,25965.4
68149.5,25967.5
68155.2,25970.2
68160.5,25973.4
68165.6,25977.1
68170.2,25981.3
68174.5,25986
68178.2,25991
68181.4,25996.4
68184.1,26002.1
68186.2,26008
68187.7,26014.1
68188.7,26020.3
68189,26026.6
68189,26154.5
68188.7,26160.8
68187.7,26167
68186.2,26173.1
68184.1,26179
68181.4,26184.7
68178.2,26190.1
68174.5,26195.1
68170.2,26199.8
68165.6,26204
68160.5,26207.7
68155.2,26210.9
68149.5,26213.6
68143.6,26215.7
68137.5,26217.3
68131.3,26218.2
68125,26218.5
67465.6,26218.5
67459.3,26218.2
67453.1,26217.3
67447,26215.7
67441.1,26213.6
67435.4,26210.9
67430,26207.7
67425,26204
67420.3,26199.8
67416.1,26195.1
67412.4,26190.1
67409.1,26184.7
67406.4,26179
67404.3,26173.1
67402.8,26167
67401.9,26160.8
67401.6,26154.5
67401.6,26026.6
67401.9,26020.3
67402.8,26014.1
67404.3,26008
67406.4,26002.1
67409.1,25996.4
67412.4,25991
67416.1,25986
67420.3,25981.3
67425,25977.1
67430,25973.4
67435.4,25970.2
67441.1,25967.5
67447,25965.4
67453.1,25963.8
67459.3,25962.9
67465.6,25962.6
68125,25962.6
Z" /> 
<path style="fill:#000000; fill-opacity:1.0; 
stroke:#000000; stroke-width:0; stroke-opacity:1; 
stroke-linecap:round; stroke-linejoin:round;fill-rule:evenodd;"
d="M 68123.4,26466.8
68129.6,26467.8
68135.7,26469.3
68141.6,26471.4
68147.3,26474.1
68152.7,26477.3
68157.7,26481.1
68162.4,26485.3
68166.6,26489.9
68170.3,26495
68173.5,26500.4
68176.2,26506
68178.3,26511.9
68179.9,26518
68180.8,26524.2
68181.1,26530.5
68181.1,26658.5
68180.8,26664.7
68179.9,26670.9
68178.3,26677
68176.2,26682.9
68173.5,26688.6
68170.3,26694
68166.6,26699.1
68162.4,26703.7
68157.7,26707.9
68152.7,26711.7
68147.3,26714.9
68141.6,26717.6
68135.7,26719.7
68129.6,26721.2
68123.4,26722.1
68117.1,26722.4
67457.7,26722.4
67451.4,26722.1
67445.2,26721.2
67439.1,26719.7
67433.2,26717.6
67427.5,26714.9
67422.1,26711.7
67417.1,26707.9
67412.4,26703.7
67408.2,26699.1
67404.5,26694
67401.3,26688.6
67398.6,26682.9
67396.5,26677
67394.9,26670.9
67394,26664.7
67393.7,26658.5
67393.7,26530.5
67394,26524.2
67394.9,26518
67396.5,26511.9
67398.6,26506
67401.3,26500.4
67404.5,26495
67408.2,26489.9
67412.4,26485.3
67417.1,26481.1
67422.1,26477.3
67427.5,26474.1
67433.2,26471.4
67439.1,26469.3
67445.2,26467.8
67451.4,26466.8
67457.7,26466.5
68117.1,26466.5
Z" /> 
<path style="fill:#000000; fill-opacity:1.0; 
stroke:#000000; stroke-width:0; stroke-opacity:1; 
stroke-linecap:round; stroke-linejoin:round;fill-rule:evenodd;"
d="M 68111.6,26978.7
68117.8,26979.6
68123.9,26981.1
68129.8,26983.2
68135.5,26985.9
68140.9,26989.1
68145.9,26992.9
68150.6,26997.1
68154.8,27001.7
68158.5,27006.8
68161.7,27012.2
68164.4,27017.8
68166.5,27023.8
68168.1,27029.8
68169,27036.1
68169.3,27042.3
68169.3,27170.3
68169,27176.5
68168.1,27182.8
68166.5,27188.8
68164.4,27194.8
68161.7,27200.4
68158.5,27205.8
68154.8,27210.9
68150.6,27215.5
68145.9,27219.7
68140.9,27223.5
68135.5,27226.7
68129.8,27229.4
68123.9,27231.5
68117.8,27233
68111.6,27233.9
68105.3,27234.3
67445.9,27234.3
67439.6,27233.9
67433.4,27233
67427.3,27231.5
67421.4,27229.4
67415.7,27226.7
67410.3,27223.5
67405.3,27219.7
67400.6,27215.5
67396.4,27210.9
67392.7,27205.8
67389.4,27200.4
67386.8,27194.8
67384.6,27188.8
67383.1,27182.8
67382.2,27176.5
67381.9,27170.3
67381.9,27042.3
67382.2,27036.1
67383.1,27029.8
67384.6,27023.8
67386.8,27017.8
67389.4,27012.2
67392.7,27006.8
67396.4,27001.7
67400.6,26997.1
67405.3,26992.9
67410.3,26989.1
67415.7,26985.9
67421.4,26983.2
67427.3,26981.1
67433.4,26979.6
67439.6,26978.7
67445.9,26978.3
68105.3,26978.3
Z" /> 
<path style="fill:#000000; fill-opacity:1.0; 
stroke:#000000; stroke-width:0; stroke-opacity:1; 
stroke-linecap:round; stroke-linejoin:round;fill-rule:evenodd;"
d="M 68103.7,27455
68109.9,27456
68116,27457.5
68121.9,27459.6
68127.6,27462.3
68133,27465.5
68138,27469.2
68142.7,27473.5
68146.9,27478.1
68150.6,27483.2
68153.9,27488.5
68156.5,27494.2
68158.7,27500.1
68160.2,27506.2
68161.1,27512.4
68161.4,27518.7
68161.4,27646.7
68161.1,27652.9
68160.2,27659.1
68158.7,27665.2
68156.5,27671.1
68153.9,27676.8
68150.6,27682.2
68146.9,27687.2
68142.7,27691.9
68138,27696.1
68133,27699.8
68127.6,27703.1
68121.9,27705.8
68116,27707.9
68109.9,27709.4
68103.7,27710.3
68097.4,27710.6
67438,27710.6
67431.7,27710.3
67425.5,27709.4
67419.4,27707.9
67413.5,27705.8
67407.8,27703.1
67402.4,27699.8
67397.4,27696.1
67392.8,27691.9
67388.5,27687.2
67384.8,27682.2
67381.6,27676.8
67378.9,27671.1
67376.8,27665.2
67375.2,27659.1
67374.3,27652.9
67374,27646.7
67374,27518.7
67374.3,27512.4
67375.2,27506.2
67376.8,27500.1
67378.9,27494.2
67381.6,27488.5
67384.8,27483.2
67388.5,27478.1
67392.8,27473.5
67397.4,27469.2
67402.4,27465.5
67407.8,27462.3
67413.5,27459.6
67419.4,27457.5
67425.5,27456
67431.7,27455
67438,27454.7
68097.4,27454.7
Z" /> 
<path style="fill:#000000; fill-opacity:1.0; 
stroke:#000000; stroke-width:0; stroke-opacity:1; 
stroke-linecap:round; stroke-linejoin:round;fill-rule:evenodd;"
d="M 68099.8,27998.3
68106,27999.3
68112.1,28000.8
68118,28002.9
68123.7,28005.6
68129,28008.8
68134.1,28012.6
68138.7,28016.8
68143,28021.4
68146.7,28026.5
68149.9,28031.8
68152.6,28037.5
68154.7,28043.4
68156.3,28049.5
68157.2,28055.7
68157.5,28062
68157.5,28190
68157.2,28196.2
68156.3,28202.4
68154.7,28208.5
68152.6,28214.4
68149.9,28220.1
68146.7,28225.5
68143,28230.5
68138.7,28235.2
68134.1,28239.4
68129,28243.2
68123.7,28246.4
68118,28249.1
68112.1,28251.2
68106,28252.7
68099.8,28253.6
68093.5,28253.9
67434.1,28253.9
67427.8,28253.6
67421.6,28252.7
67415.5,28251.2
67409.6,28249.1
67403.9,28246.4
67398.5,28243.2
67393.5,28239.4
67388.8,28235.2
67384.6,28230.5
67380.9,28225.5
67377.6,28220.1
67374.9,28214.4
67372.8,28208.5
67371.3,28202.4
67370.4,28196.2
67370.1,28190
67370.1,28062
67370.4,28055.7
67371.3,28049.5
67372.8,28043.4
67374.9,28037.5
67377.6,28031.8
67380.9,28026.5
67384.6,28021.4
67388.8,28016.8
67393.5,28012.6
67398.5,28008.8
67403.9,28005.6
67409.6,28002.9
67415.5,28000.8
67421.6,27999.3
67427.8,27998.3
67434.1,27998
68093.5,27998
Z" /> 
<path style="fill:#000000; fill-opacity:1.0; 
stroke:#000000; stroke-width:0; stroke-opacity:1; 
stroke-linecap:round; stroke-linejoin:round;fill-rule:evenodd;"
d="M 68103.7,28478.7
68109.9,28479.6
68116,28481.1
68121.9,28483.2
68127.6,28485.9
68133,28489.1
68138,28492.9
68142.7,28497.1
68146.9,28501.7
68150.6,28506.8
68153.9,28512.2
68156.5,28517.8
68158.7,28523.8
68160.2,28529.8
68161.1,28536.1
68161.4,28542.3
68161.4,28670.3
68161.1,28676.5
68160.2,28682.8
68158.7,28688.8
68156.5,28694.8
68153.9,28700.4
68150.6,28705.8
68146.9,28710.9
68142.7,28715.5
68138,28719.7
68133,28723.5
68127.6,28726.7
68121.9,28729.4
68116,28731.5
68109.9,28733
68103.7,28733.9
68097.4,28734.3
67438,28734.3
67431.7,28733.9
67425.5,28733
67419.4,28731.5
67413.5,28729.4
67407.8,28726.7
67402.4,28723.5
67397.4,28719.7
67392.8,28715.5
67388.5,28710.9
67384.8,28705.8
67381.6,28700.4
67378.9,28694.8
67376.8,28688.8
67375.2,28682.8
67374.3,28676.5
67374,28670.3
67374,28542.3
67374.3,28536.1
67375.2,28529.8
67376.8,28523.8
67378.9,28517.8
67381.6,28512.2
67384.8,28506.8
67388.5,28501.7
67392.8,28497.1
67397.4,28492.9
67402.4,28489.1
67407.8,28485.9
67413.5,28483.2
67419.4,28481.1
67425.5,28479.6
67431.7,28478.7
67438,28478.3
68097.4,28478.3
Z" /> 
<path style="fill:#000000; fill-opacity:1.0; 
stroke:#000000; stroke-width:0; stroke-opacity:1; 
stroke-linecap:round; stroke-linejoin:round;fill-rule:evenodd;"
d="M 68103.7,28978.7
68109.9,28979.6
68116,28981.1
68121.9,28983.2
68127.6,28985.9
68133,28989.1
68138,28992.9
68142.7,28997.1
68146.9,29001.7
68150.6,29006.8
68153.9,29012.2
68156.5,29017.8
68158.7,29023.8
68160.2,29029.8
68161.1,29036.1
68161.4,29042.3
68161.4,29170.3
68161.1,29176.5
68160.2,29182.8
68158.7,29188.8
68156.5,29194.8
68153.9,29200.4
68150.6,29205.8
68146.9,29210.9
68142.7,29215.5
68138,29219.7
68133,29223.5
68127.6,29226.7
68121.9,29229.4
68116,29231.5
68109.9,29233
68103.7,29233.9
68097.4,29234.3
67438,29234.3
67431.7,29233.9
67425.5,29233
67419.4,29231.5
67413.5,29229.4
67407.8,29226.7
67402.4,29223.5
67397.4,29219.7
67392.8,29215.5
67388.5,29210.9
67384.8,29205.8
67381.6,29200.4
67378.9,29194.8
67376.8,29188.8
67375.2,29182.8
67374.3,29176.5
67374,29170.3
67374,29042.3
67374.3,29036.1
67375.2,29029.8
67376.8,29023.8
67378.9,29017.8
67381.6,29012.2
67384.8,29006.8
67388.5,29001.7
67392.8,28997.1
67397.4,28992.9
67402.4,28989.1
67407.8,28985.9
67413.5,28983.2
67419.4,28981.1
67425.5,28979.6
67431.7,28978.7
67438,28978.3
68097.4,28978.3
Z" /> 
<path style="fill:#000000; fill-opacity:1.0; 
stroke:#000000; stroke-width:0; stroke-opacity:1; 
stroke-linecap:round; stroke-linejoin:round;fill-rule:evenodd;"
d="M 68107.6,29462.9
68113.9,29463.8
68119.9,29465.4
68125.9,29467.5
68131.5,29470.2
68136.9,29473.4
68142,29477.1
68146.6,29481.3
68150.8,29486
68154.6,29491
68157.8,29496.4
68160.5,29502.1
68162.6,29508
68164.1,29514.1
68165,29520.3
68165.4,29526.6
68165.4,29654.5
68165,29660.8
68164.1,29667
68162.6,29673.1
68160.5,29679
68157.8,29684.7
68154.6,29690.1
68150.8,29695.1
68146.6,29699.8
68142,29704
68136.9,29707.7
68131.5,29710.9
68125.9,29713.6
68119.9,29715.7
68113.9,29717.3
68107.6,29718.2
68101.4,29718.5
67441.9,29718.5
67435.7,29718.2
67429.4,29717.3
67423.4,29715.7
67417.4,29713.6
67411.8,29710.9
67406.4,29707.7
67401.3,29704
67396.7,29699.8
67392.5,29695.1
67388.7,29690.1
67385.5,29684.7
67382.8,29679
67380.7,29673.1
67379.2,29667
67378.3,29660.8
67378,29654.5
67378,29526.6
67378.3,29520.3
67379.2,29514.1
67380.7,29508
67382.8,29502.1
67385.5,29496.4
67388.7,29491
67392.5,29486
67396.7,29481.3
67401.3,29477.1
67406.4,29473.4
67411.8,29470.2
67417.4,29467.5
67423.4,29465.4
67429.4,29463.8
67435.7,29462.9
67441.9,29462.6
68101.4,29462.6
Z" /> 
<path style="fill:#000000; fill-opacity:1.0; 
stroke:#000000; stroke-width:0; stroke-opacity:1; 
stroke-linecap:round; stroke-linejoin:round;fill-rule:evenodd;"
d="M 68103.7,29982.6
68109.9,29983.5
68116,29985
68121.9,29987.2
68127.6,29989.8
68133,29993.1
68138,29996.8
68142.7,30001
68146.9,30005.7
68150.6,30010.7
68153.9,30016.1
68156.5,30021.8
68158.7,30027.7
68160.2,30033.8
68161.1,30040
68161.4,30046.3
68161.4,30174.2
68161.1,30180.5
68160.2,30186.7
68158.7,30192.8
68156.5,30198.7
68153.9,30204.4
68150.6,30209.8
68146.9,30214.8
68142.7,30219.5
68138,30223.7
68133,30227.4
68127.6,30230.6
68121.9,30233.3
68116,30235.4
68109.9,30237
68103.7,30237.9
68097.4,30238.2
67438,30238.2
67431.7,30237.9
67425.5,30237
67419.4,30235.4
67413.5,30233.3
67407.8,30230.6
67402.4,30227.4
67397.4,30223.7
67392.8,30219.5
67388.5,30214.8
67384.8,30209.8
67381.6,30204.4
67378.9,30198.7
67376.8,30192.8
67375.2,30186.7
67374.3,30180.5
67374,30174.2
67374,30046.3
67374.3,30040
67375.2,30033.8
67376.8,30027.7
67378.9,30021.8
67381.6,30016.1
67384.8,30010.7
67388.5,30005.7
67392.8,30001
67397.4,29996.8
67402.4,29993.1
67407.8,29989.8
67413.5,29987.2
67419.4,29985
67425.5,29983.5
67431.7,29982.6
67438,29982.3
68097.4,29982.3
Z" /> 
<path style="fill:#000000; fill-opacity:1.0; 
stroke:#000000; stroke-width:0; stroke-opacity:1; 
stroke-linecap:round; stroke-linejoin:round;fill-rule:evenodd;"
d="M 68103.7,30502.3
68109.9,30503.2
68116,30504.7
68121.9,30506.8
68127.6,30509.5
68133,30512.8
68138,30516.5
68142.7,30520.7
68146.9,30525.4
68150.6,30530.4
68153.9,30535.8
68156.5,30541.5
68158.7,30547.4
68160.2,30553.5
68161.1,30559.7
68161.4,30565.9
68161.4,30693.9
68161.1,30700.2
68160.2,30706.4
68158.7,30712.5
68156.5,30718.4
68153.9,30724.1
68150.6,30729.4
68146.9,30734.5
68142.7,30739.1
68138,30743.4
68133,30747.1
68127.6,30750.3
68121.9,30753
68116,30755.1
68109.9,30756.6
68103.7,30757.6
68097.4,30757.9
67438,30757.9
67431.7,30757.6
67425.5,30756.6
67419.4,30755.1
67413.5,30753
67407.8,30750.3
67402.4,30747.1
67397.4,30743.4
67392.8,30739.1
67388.5,30734.5
67384.8,30729.4
67381.6,30724.1
67378.9,30718.4
67376.8,30712.5
67375.2,30706.4
67374.3,30700.2
67374,30693.9
67374,30565.9
67374.3,30559.7
67375.2,30553.5
67376.8,30547.4
67378.9,30541.5
67381.6,30535.8
67384.8,30530.4
67388.5,30525.4
67392.8,30520.7
67397.4,30516.5
67402.4,30512.8
67407.8,30509.5
67413.5,30506.8
67419.4,30504.7
67425.5,30503.2
67431.7,30502.3
67438,30502
68097.4,30502
Z" /> 
<path style="fill:#000000; fill-opacity:1.0; 
stroke:#000000; stroke-width:0; stroke-opacity:1; 
stroke-linecap:round; stroke-linejoin:round;fill-rule:evenodd;"
d="M 68107.6,30998.3
68113.9,30999.3
68119.9,31000.8
68125.9,31002.9
68131.5,31005.6
68136.9,31008.8
68142,31012.6
68146.6,31016.8
68150.8,31021.4
68154.6,31026.5
68157.8,31031.8
68160.5,31037.5
68162.6,31043.4
68164.1,31049.5
68165,31055.7
68165.4,31062
68165.4,31190
68165,31196.2
68164.1,31202.4
68162.6,31208.5
68160.5,31214.4
68157.8,31220.1
68154.6,31225.5
68150.8,31230.5
68146.6,31235.2
68142,31239.4
68136.9,31243.2
68131.5,31246.4
68125.9,31249.1
68119.9,31251.2
68113.9,31252.7
68107.6,31253.6
68101.4,31253.9
67441.9,31253.9
67435.7,31253.6
67429.4,31252.7
67423.4,31251.2
67417.4,31249.1
67411.8,31246.4
67406.4,31243.2
67401.3,31239.4
67396.7,31235.2
67392.5,31230.5
67388.7,31225.5
67385.5,31220.1
67382.8,31214.4
67380.7,31208.5
67379.2,31202.4
67378.3,31196.2
67378,31190
67378,31062
67378.3,31055.7
67379.2,31049.5
67380.7,31043.4
67382.8,31037.5
67385.5,31031.8
67388.7,31026.5
67392.5,31021.4
67396.7,31016.8
67401.3,31012.6
67406.4,31008.8
67411.8,31005.6
67417.4,31002.9
67423.4,31000.8
67429.4,30999.3
67435.7,30998.3
67441.9,30998
68101.4,30998
Z" /> 
<path style="fill:#000000; fill-opacity:1.0; 
stroke:#000000; stroke-width:0; stroke-opacity:1; 
stroke-linecap:round; stroke-linejoin:round;fill-rule:evenodd;"
d="M 68099.8,31506.2
68106,31507.1
68112.1,31508.7
68118,31510.8
68123.7,31513.5
68129,31516.7
68134.1,31520.4
68138.7,31524.6
68143,31529.3
68146.7,31534.3
68149.9,31539.7
68152.6,31545.4
68154.7,31551.3
68156.3,31557.4
68157.2,31563.6
68157.5,31569.9
68157.5,31697.8
68157.2,31704.1
68156.3,31710.3
68154.7,31716.4
68152.6,31722.3
68149.9,31728
68146.7,31733.4
68143,31738.4
68138.7,31743.1
68134.1,31747.3
68129,31751
68123.7,31754.3
68118,31756.9
68112.1,31759.1
68106,31760.6
68099.8,31761.5
68093.5,31761.8
67434.1,31761.8
67427.8,31761.5
67421.6,31760.6
67415.5,31759.1
67409.6,31756.9
67403.9,31754.3
67398.5,31751
67393.5,31747.3
67388.8,31743.1
67384.6,31738.4
67380.9,31733.4
67377.6,31728
67374.9,31722.3
67372.8,31716.4
67371.3,31710.3
67370.4,31704.1
67370.1,31697.8
67370.1,31569.9
67370.4,31563.6
67371.3,31557.4
67372.8,31551.3
67374.9,31545.4
67377.6,31539.7
67380.9,31534.3
67384.6,31529.3
67388.8,31524.6
67393.5,31520.4
67398.5,31516.7
67403.9,31513.5
67409.6,31510.8
67415.5,31508.7
67421.6,31507.1
67427.8,31506.2
67434.1,31505.9
68093.5,31505.9
Z" /> 
<path style="fill:#000000; fill-opacity:1.0; 
stroke:#000000; stroke-width:0; stroke-opacity:1; 
stroke-linecap:round; stroke-linejoin:round;fill-rule:evenodd;"
d="M 68103.7,31986.5
68109.9,31987.4
68116,31989
68121.9,31991.1
68127.6,31993.8
68133,31997
68138,32000.7
68142.7,32005
68146.9,32009.6
68150.6,32014.7
68153.9,32020
68156.5,32025.7
68158.7,32031.6
68160.2,32037.7
68161.1,32043.9
68161.4,32050.2
68161.4,32178.1
68161.1,32184.4
68160.2,32190.6
68158.7,32196.7
68156.5,32202.6
68153.9,32208.3
68150.6,32213.7
68146.9,32218.7
68142.7,32223.4
68138,32227.6
68133,32231.3
68127.6,32234.6
68121.9,32237.3
68116,32239.4
68109.9,32240.9
68103.7,32241.8
68097.4,32242.1
67438,32242.1
67431.7,32241.8
67425.5,32240.9
67419.4,32239.4
67413.5,32237.3
67407.8,32234.6
67402.4,32231.3
67397.4,32227.6
67392.8,32223.4
67388.5,32218.7
67384.8,32213.7
67381.6,32208.3
67378.9,32202.6
67376.8,32196.7
67375.2,32190.6
67374.3,32184.4
67374,32178.1
67374,32050.2
67374.3,32043.9
67375.2,32037.7
67376.8,32031.6
67378.9,32025.7
67381.6,32020
67384.8,32014.7
67388.5,32009.6
67392.8,32005
67397.4,32000.7
67402.4,31997
67407.8,31993.8
67413.5,31991.1
67419.4,31989
67425.5,31987.4
67431.7,31986.5
67438,31986.2
68097.4,31986.2
Z" /> 
<path style="fill:#000000; fill-opacity:1.0; 
stroke:#000000; stroke-width:0; stroke-opacity:1; 
stroke-linecap:round; stroke-linejoin:round;fill-rule:evenodd;"
d="M 68107.6,32455
68113.9,32456
68119.9,32457.5
68125.9,32459.6
68131.5,32462.3
68136.9,32465.5
68142,32469.2
68146.6,32473.5
68150.8,32478.1
68154.6,32483.2
68157.8,32488.5
68160.5,32494.2
68162.6,32500.1
68164.1,32506.2
68165,32512.4
68165.4,32518.7
68165.4,32646.7
68165,32652.9
68164.1,32659.1
68162.6,32665.2
68160.5,32671.1
68157.8,32676.8
68154.6,32682.2
68150.8,32687.2
68146.6,32691.9
68142,32696.1
68136.9,32699.8
68131.5,32703.1
68125.9,32705.8
68119.9,32707.9
68113.9,32709.4
68107.6,32710.3
68101.4,32710.6
67441.9,32710.6
67435.7,32710.3
67429.4,32709.4
67423.4,32707.9
67417.4,32705.8
67411.8,32703.1
67406.4,32699.8
67401.3,32696.1
67396.7,32691.9
67392.5,32687.2
67388.7,32682.2
67385.5,32676.8
67382.8,32671.1
67380.7,32665.2
67379.2,32659.1
67378.3,32652.9
67378,32646.7
67378,32518.7
67378.3,32512.4
67379.2,32506.2
67380.7,32500.1
67382.8,32494.2
67385.5,32488.5
67388.7,32483.2
67392.5,32478.1
67396.7,32473.5
67401.3,32469.2
67406.4,32465.5
67411.8,32462.3
67417.4,32459.6
67423.4,32457.5
67429.4,32456
67435.7,32455
67441.9,32454.7
68101.4,32454.7
Z" /> 
</g>
<g >
</g>
<g style="fill:#000000; fill-opacity:1.0; 
stroke:#000000; stroke-width:0; stroke-opacity:1; 
stroke-linecap:round; stroke-linejoin:round;">
<circle cx="74606.3" cy="34350.4" r="236.22" /> 
</g>
<g style="fill:#000000; fill-opacity:1.0; 
stroke:#000000; stroke-width:39.3701; stroke-opacity:1; 
stroke-linecap:round; stroke-linejoin:round;">
</g>
<g style="fill:#000000; fill-opacity:1.0; 
stroke:#000000; stroke-width:0; stroke-opacity:1; 
stroke-linecap:round; stroke-linejoin:round;">
<path style="fill:#000000; fill-opacity:1.0; 
stroke:#000000; stroke-width:0; stroke-opacity:1; 
stroke-linecap:round; stroke-linejoin:round;fill-rule:evenodd;"
d="M 73582.7,34586.6
73582.7,34114.2
74055.1,34114.2
74055.1,34586.6
Z" /> 
</g>
<g >
</g>
<g style="fill:#000000; fill-opacity:1.0; 
stroke:#000000; stroke-width:0; stroke-opacity:1; 
stroke-linecap:round; stroke-linejoin:round;">
<circle cx="74606.3" cy="27460.6" r="236.22" /> 
</g>
<g style="fill:#000000; fill-opacity:1.0; 
stroke:#000000; stroke-width:39.3701; stroke-opacity:1; 
stroke-linecap:round; stroke-linejoin:round;">
</g>
<g style="fill:#000000; fill-opacity:1.0; 
stroke:#000000; stroke-width:0; stroke-opacity:1; 
stroke-linecap:round; stroke-linejoin:round;">
<path style="fill:#000000; fill-opacity:1.0; 
stroke:#000000; stroke-width:0; stroke-opacity:1; 
stroke-linecap:round; stroke-linejoin:round;fill-rule:evenodd;"
d="M 73582.7,27696.9
73582.7,27224.4
74055.1,27224.4
74055.1,27696.9
Z" /> 
</g>
<g >
</g>
<g style="fill:#000000; fill-opacity:1.0; 
stroke:#000000; stroke-width:0; stroke-opacity:1; 
stroke-linecap:round; stroke-linejoin:round;">
<circle cx="60901.6" cy="36078.7" r="236.22" /> 
</g>
<g style="fill:#000000; fill-opacity:1.0; 
stroke:#000000; stroke-width:39.3701; stroke-opacity:1; 
stroke-linecap:round; stroke-linejoin:round;">
</g>
<g style="fill:#000000; fill-opacity:1.0; 
stroke:#000000; stroke-width:0; stroke-opacity:1; 
stroke-linecap:round; stroke-linejoin:round;">
<path style="fill:#000000; fill-opacity:1.0; 
stroke:#000000; stroke-width:0; stroke-opacity:1; 
stroke-linecap:round; stroke-linejoin:round;fill-rule:evenodd;"
d="M 61137.8,37102.4
60665.4,37102.4
60665.4,36629.9
61137.8,36629.9
Z" /> 
</g>
<g >
</g>
<g style="fill:#000000; fill-opacity:1.0; 
stroke:#000000; stroke-width:0; stroke-opacity:1; 
stroke-linecap:round; stroke-linejoin:round;">
<circle cx="63098.4" cy="36066.9" r="236.22" /> 
</g>
<g style="fill:#000000; fill-opacity:1.0; 
stroke:#000000; stroke-width:39.3701; stroke-opacity:1; 
stroke-linecap:round; stroke-linejoin:round;">
</g>
<g style="fill:#000000; fill-opacity:1.0; 
stroke:#000000; stroke-width:0; stroke-opacity:1; 
stroke-linecap:round; stroke-linejoin:round;">
<path style="fill:#000000; fill-opacity:1.0; 
stroke:#000000; stroke-width:0; stroke-opacity:1; 
stroke-linecap:round; stroke-linejoin:round;fill-rule:evenodd;"
d="M 63334.6,37090.6
62862.2,37090.6
62862.2,36618.1
63334.6,36618.1
Z" /> 
</g>
<g >
</g>
<g style="fill:#000000; fill-opacity:1.0; 
stroke:#000000; stroke-width:0; stroke-opacity:1; 
stroke-linecap:round; stroke-linejoin:round;">
<circle cx="65334.6" cy="36063" r="236.22" /> 
</g>
<g style="fill:#000000; fill-opacity:1.0; 
stroke:#000000; stroke-width:39.3701; stroke-opacity:1; 
stroke-linecap:round; stroke-linejoin:round;">
</g>
<g style="fill:#000000; fill-opacity:1.0; 
stroke:#000000; stroke-width:0; stroke-opacity:1; 
stroke-linecap:round; stroke-linejoin:round;">
<path style="fill:#000000; fill-opacity:1.0; 
stroke:#000000; stroke-width:0; stroke-opacity:1; 
stroke-linecap:round; stroke-linejoin:round;fill-rule:evenodd;"
d="M 65570.9,37086.6
65098.4,37086.6
65098.4,36614.2
65570.9,36614.2
Z" /> 
</g>
<g >
</g>
<g style="fill:#000000; fill-opacity:1.0; 
stroke:#000000; stroke-width:0; stroke-opacity:1; 
stroke-linecap:round; stroke-linejoin:round;">
<circle cx="67598.4" cy="36070.9" r="236.22" /> 
</g>
<g style="fill:#000000; fill-opacity:1.0; 
stroke:#000000; stroke-width:39.3701; stroke-opacity:1; 
stroke-linecap:round; stroke-linejoin:round;">
</g>
<g style="fill:#000000; fill-opacity:1.0; 
stroke:#000000; stroke-width:0; stroke-opacity:1; 
stroke-linecap:round; stroke-linejoin:round;">
<path style="fill:#000000; fill-opacity:1.0; 
stroke:#000000; stroke-width:0; stroke-opacity:1; 
stroke-linecap:round; stroke-linejoin:round;fill-rule:evenodd;"
d="M 67834.6,37094.5
67362.2,37094.5
67362.2,36622
67834.6,36622
Z" /> 
</g>
<g >
</g>
<g style="fill:#000000; fill-opacity:1.0; 
stroke:#000000; stroke-width:0; stroke-opacity:1; 
stroke-linecap:round; stroke-linejoin:round;">
<circle cx="69787.4" cy="36066.9" r="236.22" /> 
</g>
<g style="fill:#000000; fill-opacity:1.0; 
stroke:#000000; stroke-width:39.3701; stroke-opacity:1; 
stroke-linecap:round; stroke-linejoin:round;">
</g>
<g style="fill:#000000; fill-opacity:1.0; 
stroke:#000000; stroke-width:0; stroke-opacity:1; 
stroke-linecap:round; stroke-linejoin:round;">
<path style="fill:#000000; fill-opacity:1.0; 
stroke:#000000; stroke-width:0; stroke-opacity:1; 
stroke-linecap:round; stroke-linejoin:round;fill-rule:evenodd;"
d="M 70023.6,37090.6
69551.2,37090.6
69551.2,36618.1
70023.6,36618.1
Z" /> 
</g>
<g >
</g>
<g style="fill:#000000; fill-opacity:1.0; 
stroke:#000000; stroke-width:0; stroke-opacity:1; 
stroke-linecap:round; stroke-linejoin:round;">
<circle cx="61594.5" cy="18346.5" r="236.22" /> 
</g>
<g style="fill:#000000; fill-opacity:1.0; 
stroke:#000000; stroke-width:39.3701; stroke-opacity:1; 
stroke-linecap:round; stroke-linejoin:round;">
</g>
<g style="fill:#000000; fill-opacity:1.0; 
stroke:#000000; stroke-width:0; stroke-opacity:1; 
stroke-linecap:round; stroke-linejoin:round;">
<path style="fill:#000000; fill-opacity:1.0; 
stroke:#000000; stroke-width:0; stroke-opacity:1; 
stroke-linecap:round; stroke-linejoin:round;fill-rule:evenodd;"
d="M 61830.7,19370.1
61358.3,19370.1
61358.3,18897.6
61830.7,18897.6
Z" /> 
</g>
<g >
</g>
<g style="fill:#000000; fill-opacity:1.0; 
stroke:#000000; stroke-width:0; stroke-opacity:1; 
stroke-linecap:round; stroke-linejoin:round;">
<circle cx="63779.5" cy="18350.4" r="236.22" /> 
</g>
<g style="fill:#000000; fill-opacity:1.0; 
stroke:#000000; stroke-width:39.3701; stroke-opacity:1; 
stroke-linecap:round; stroke-linejoin:round;">
</g>
<g style="fill:#000000; fill-opacity:1.0; 
stroke:#000000; stroke-width:0; stroke-opacity:1; 
stroke-linecap:round; stroke-linejoin:round;">
<path style="fill:#000000; fill-opacity:1.0; 
stroke:#000000; stroke-width:0; stroke-opacity:1; 
stroke-linecap:round; stroke-linejoin:round;fill-rule:evenodd;"
d="M 64015.7,19374
63543.3,19374
63543.3,18901.6
64015.7,18901.6
Z" /> 
</g>
<g >
</g>
<g style="fill:#000000; fill-opacity:1.0; 
stroke:#000000; stroke-width:0; stroke-opacity:1; 
stroke-linecap:round; stroke-linejoin:round;">
<circle cx="65964.6" cy="18326.8" r="236.22" /> 
</g>
<g style="fill:#000000; fill-opacity:1.0; 
stroke:#000000; stroke-width:39.3701; stroke-opacity:1; 
stroke-linecap:round; stroke-linejoin:round;">
</g>
<g style="fill:#000000; fill-opacity:1.0; 
stroke:#000000; stroke-width:0; stroke-opacity:1; 
stroke-linecap:round; stroke-linejoin:round;">
<path style="fill:#000000; fill-opacity:1.0; 
stroke:#000000; stroke-width:0; stroke-opacity:1; 
stroke-linecap:round; stroke-linejoin:round;fill-rule:evenodd;"
d="M 66200.8,19350.4
65728.3,19350.4
65728.3,18878
66200.8,18878
Z" /> 
</g>
<g >
</g>
<g style="fill:#000000; fill-opacity:1.0; 
stroke:#000000; stroke-width:0; stroke-opacity:1; 
stroke-linecap:round; stroke-linejoin:round;">
<circle cx="68149.6" cy="18326.8" r="236.22" /> 
</g>
<g style="fill:#000000; fill-opacity:1.0; 
stroke:#000000; stroke-width:39.3701; stroke-opacity:1; 
stroke-linecap:round; stroke-linejoin:round;">
</g>
<g style="fill:#000000; fill-opacity:1.0; 
stroke:#000000; stroke-width:0; stroke-opacity:1; 
stroke-linecap:round; stroke-linejoin:round;">
<path style="fill:#000000; fill-opacity:1.0; 
stroke:#000000; stroke-width:0; stroke-opacity:1; 
stroke-linecap:round; stroke-linejoin:round;fill-rule:evenodd;"
d="M 68385.8,19350.4
67913.4,19350.4
67913.4,18878
68385.8,18878
Z" /> 
</g>
<g >
</g>
<g style="fill:#000000; fill-opacity:1.0; 
stroke:#000000; stroke-width:0; stroke-opacity:1; 
stroke-linecap:round; stroke-linejoin:round;">
<circle cx="72539.4" cy="18346.5" r="236.22" /> 
</g>
<g style="fill:#000000; fill-opacity:1.0; 
stroke:#000000; stroke-width:39.3701; stroke-opacity:1; 
stroke-linecap:round; stroke-linejoin:round;">
</g>
<g style="fill:#000000; fill-opacity:1.0; 
stroke:#000000; stroke-width:0; stroke-opacity:1; 
stroke-linecap:round; stroke-linejoin:round;">
<path style="fill:#000000; fill-opacity:1.0; 
stroke:#000000; stroke-width:0; stroke-opacity:1; 
stroke-linecap:round; stroke-linejoin:round;fill-rule:evenodd;"
d="M 72775.6,19370.1
72303.1,19370.1
72303.1,18897.6
72775.6,18897.6
Z" /> 
</g>
<g >
</g>
<g style="fill:#000000; fill-opacity:1.0; 
stroke:#000000; stroke-width:0; stroke-opacity:1; 
stroke-linecap:round; stroke-linejoin:round;">
<circle cx="59389.8" cy="18326.8" r="236.22" /> 
</g>
<g style="fill:#000000; fill-opacity:1.0; 
stroke:#000000; stroke-width:39.3701; stroke-opacity:1; 
stroke-linecap:round; stroke-linejoin:round;">
</g>
<g style="fill:#000000; fill-opacity:1.0; 
stroke:#000000; stroke-width:0; stroke-opacity:1; 
stroke-linecap:round; stroke-linejoin:round;">
<path style="fill:#000000; fill-opacity:1.0; 
stroke:#000000; stroke-width:0; stroke-opacity:1; 
stroke-linecap:round; stroke-linejoin:round;fill-rule:evenodd;"
d="M 59626,19350.4
59153.5,19350.4
59153.5,18878
59626,18878
Z" /> 
</g>
<g >
</g>
<g style="fill:#000000; fill-opacity:1.0; 
stroke:#000000; stroke-width:0; stroke-opacity:1; 
stroke-linecap:round; stroke-linejoin:round;">
<circle cx="71545.3" cy="29724.4" r="236.22" /> 
</g>
<g style="fill:#000000; fill-opacity:1.0; 
stroke:#000000; stroke-width:39.3701; stroke-opacity:1; 
stroke-linecap:round; stroke-linejoin:round;">
</g>
<g style="fill:#000000; fill-opacity:1.0; 
stroke:#000000; stroke-width:0; stroke-opacity:1; 
stroke-linecap:round; stroke-linejoin:round;">
<path style="fill:#000000; fill-opacity:1.0; 
stroke:#000000; stroke-width:0; stroke-opacity:1; 
stroke-linecap:round; stroke-linejoin:round;fill-rule:evenodd;"
d="M 70521.7,29960.6
70521.7,29488.2
70994.1,29488.2
70994.1,29960.6
Z" /> 
</g>
<g >
</g>
<g style="fill:#000000; fill-opacity:1.0; 
stroke:#000000; stroke-width:0; stroke-opacity:1; 
stroke-linecap:round; stroke-linejoin:round;">
<circle cx="56496.1" cy="34448.8" r="236.22" /> 
</g>
<g style="fill:#000000; fill-opacity:1.0; 
stroke:#000000; stroke-width:39.3701; stroke-opacity:1; 
stroke-linecap:round; stroke-linejoin:round;">
</g>
<g style="fill:#000000; fill-opacity:1.0; 
stroke:#000000; stroke-width:0; stroke-opacity:1; 
stroke-linecap:round; stroke-linejoin:round;">
<path style="fill:#000000; fill-opacity:1.0; 
stroke:#000000; stroke-width:0; stroke-opacity:1; 
stroke-linecap:round; stroke-linejoin:round;fill-rule:evenodd;"
d="M 57519.7,34212.6
57519.7,34685
57047.2,34685
57047.2,34212.6
Z" /> 
</g>
<g >
</g>
<g style="fill:#000000; fill-opacity:1.0; 
stroke:#000000; stroke-width:0; stroke-opacity:1; 
stroke-linecap:round; stroke-linejoin:round;">
<circle cx="56397.6" cy="32185" r="236.22" /> 
</g>
<g style="fill:#000000; fill-opacity:1.0; 
stroke:#000000; stroke-width:39.3701; stroke-opacity:1; 
stroke-linecap:round; stroke-linejoin:round;">
</g>
<g style="fill:#000000; fill-opacity:1.0; 
stroke:#000000; stroke-width:0; stroke-opacity:1; 
stroke-linecap:round; stroke-linejoin:round;">
<path style="fill:#000000; fill-opacity:1.0; 
stroke:#000000; stroke-width:0; stroke-opacity:1; 
stroke-linecap:round; stroke-linejoin:round;fill-rule:evenodd;"
d="M 57421.3,31948.8
57421.3,32421.3
56948.8,32421.3
56948.8,31948.8
Z" /> 
</g>
<g >
</g>
<g style="fill:#000000; fill-opacity:1.0; 
stroke:#000000; stroke-width:0; stroke-opacity:1; 
stroke-linecap:round; stroke-linejoin:round;">
<circle cx="56397.6" cy="29921.3" r="236.22" /> 
</g>
<g style="fill:#000000; fill-opacity:1.0; 
stroke:#000000; stroke-width:39.3701; stroke-opacity:1; 
stroke-linecap:round; stroke-linejoin:round;">
</g>
<g style="fill:#000000; fill-opacity:1.0; 
stroke:#000000; stroke-width:0; stroke-opacity:1; 
stroke-linecap:round; stroke-linejoin:round;">
<path style="fill:#000000; fill-opacity:1.0; 
stroke:#000000; stroke-width:0; stroke-opacity:1; 
stroke-linecap:round; stroke-linejoin:round;fill-rule:evenodd;"
d="M 57421.3,29685
57421.3,30157.5
56948.8,30157.5
56948.8,29685
Z" /> 
</g>
<g >
</g>
<g style="fill:#000000; fill-opacity:1.0; 
stroke:#000000; stroke-width:0; stroke-opacity:1; 
stroke-linecap:round; stroke-linejoin:round;">
<circle cx="56397.6" cy="27657.5" r="236.22" /> 
</g>
<g style="fill:#000000; fill-opacity:1.0; 
stroke:#000000; stroke-width:39.3701; stroke-opacity:1; 
stroke-linecap:round; stroke-linejoin:round;">
</g>
<g style="fill:#000000; fill-opacity:1.0; 
stroke:#000000; stroke-width:0; stroke-opacity:1; 
stroke-linecap:round; stroke-linejoin:round;">
<path style="fill:#000000; fill-opacity:1.0; 
stroke:#000000; stroke-width:0; stroke-opacity:1; 
stroke-linecap:round; stroke-linejoin:round;fill-rule:evenodd;"
d="M 57421.3,27421.3
57421.3,27893.7
56948.8,27893.7
56948.8,27421.3
Z" /> 
</g>
<g >
</g>
<g style="fill:#000000; fill-opacity:1.0; 
stroke:#000000; stroke-width:0; stroke-opacity:1; 
stroke-linecap:round; stroke-linejoin:round;">
<circle cx="56397.6" cy="25393.7" r="236.22" /> 
</g>
<g style="fill:#000000; fill-opacity:1.0; 
stroke:#000000; stroke-width:39.3701; stroke-opacity:1; 
stroke-linecap:round; stroke-linejoin:round;">
</g>
<g style="fill:#000000; fill-opacity:1.0; 
stroke:#000000; stroke-width:0; stroke-opacity:1; 
stroke-linecap:round; stroke-linejoin:round;">
<path style="fill:#000000; fill-opacity:1.0; 
stroke:#000000; stroke-width:0; stroke-opacity:1; 
stroke-linecap:round; stroke-linejoin:round;fill-rule:evenodd;"
d="M 57421.3,25157.5
57421.3,25629.9
56948.8,25629.9
56948.8,25157.5
Z" /> 
</g>
<g >
</g>
<g style="fill:#000000; fill-opacity:1.0; 
stroke:#000000; stroke-width:0; stroke-opacity:1; 
stroke-linecap:round; stroke-linejoin:round;">
<circle cx="56397.6" cy="23129.9" r="236.22" /> 
</g>
<g style="fill:#000000; fill-opacity:1.0; 
stroke:#000000; stroke-width:39.3701; stroke-opacity:1; 
stroke-linecap:round; stroke-linejoin:round;">
</g>
<g style="fill:#000000; fill-opacity:1.0; 
stroke:#000000; stroke-width:0; stroke-opacity:1; 
stroke-linecap:round; stroke-linejoin:round;">
<path style="fill:#000000; fill-opacity:1.0; 
stroke:#000000; stroke-width:0; stroke-opacity:1; 
stroke-linecap:round; stroke-linejoin:round;fill-rule:evenodd;"
d="M 57421.3,22893.7
57421.3,23366.1
56948.8,23366.1
56948.8,22893.7
Z" /> 
</g>
<g >
</g>
<g style="fill:#000000; fill-opacity:1.0; 
stroke:#000000; stroke-width:0; stroke-opacity:1; 
stroke-linecap:round; stroke-linejoin:round;">
<circle cx="74606.3" cy="31988.2" r="236.22" /> 
</g>
<g style="fill:#000000; fill-opacity:1.0; 
stroke:#000000; stroke-width:39.3701; stroke-opacity:1; 
stroke-linecap:round; stroke-linejoin:round;">
</g>
<g style="fill:#000000; fill-opacity:1.0; 
stroke:#000000; stroke-width:0; stroke-opacity:1; 
stroke-linecap:round; stroke-linejoin:round;">
<path style="fill:#000000; fill-opacity:1.0; 
stroke:#000000; stroke-width:0; stroke-opacity:1; 
stroke-linecap:round; stroke-linejoin:round;fill-rule:evenodd;"
d="M 73582.7,32224.4
73582.7,31752
74055.1,31752
74055.1,32224.4
Z" /> 
</g>
<g >
</g>
<g style="fill:#000000; fill-opacity:1.0; 
stroke:#000000; stroke-width:0; stroke-opacity:1; 
stroke-linecap:round; stroke-linejoin:round;">
<circle cx="74606.3" cy="29724.4" r="236.22" /> 
</g>
<g style="fill:#000000; fill-opacity:1.0; 
stroke:#000000; stroke-width:39.3701; stroke-opacity:1; 
stroke-linecap:round; stroke-linejoin:round;">
</g>
<g style="fill:#000000; fill-opacity:1.0; 
stroke:#000000; stroke-width:0; stroke-opacity:1; 
stroke-linecap:round; stroke-linejoin:round;">
<path style="fill:#000000; fill-opacity:1.0; 
stroke:#000000; stroke-width:0; stroke-opacity:1; 
stroke-linecap:round; stroke-linejoin:round;fill-rule:evenodd;"
d="M 73582.7,29960.6
73582.7,29488.2
74055.1,29488.2
74055.1,29960.6
Z" /> 
</g>
<g >
</g>
<g style="fill:#000000; fill-opacity:1.0; 
stroke:#000000; stroke-width:0; stroke-opacity:1; 
stroke-linecap:round; stroke-linejoin:round;">
<circle cx="74606.3" cy="25196.9" r="236.22" /> 
</g>
<g style="fill:#000000; fill-opacity:1.0; 
stroke:#000000; stroke-width:39.3701; stroke-opacity:1; 
stroke-linecap:round; stroke-linejoin:round;">
</g>
<g style="fill:#000000; fill-opacity:1.0; 
stroke:#000000; stroke-width:0; stroke-opacity:1; 
stroke-linecap:round; stroke-linejoin:round;">
<path style="fill:#000000; fill-opacity:1.0; 
stroke:#000000; stroke-width:0; stroke-opacity:1; 
stroke-linecap:round; stroke-linejoin:round;fill-rule:evenodd;"
d="M 73582.7,25433.1
73582.7,24960.6
74055.1,24960.6
74055.1,25433.1
Z" /> 
</g>
<g >
</g>
<g style="fill:#000000; fill-opacity:1.0; 
stroke:#000000; stroke-width:0; stroke-opacity:1; 
stroke-linecap:round; stroke-linejoin:round;">
<circle cx="74606.3" cy="22933.1" r="236.22" /> 
</g>
<g style="fill:#000000; fill-opacity:1.0; 
stroke:#000000; stroke-width:39.3701; stroke-opacity:1; 
stroke-linecap:round; stroke-linejoin:round;">
</g>
<g style="fill:#000000; fill-opacity:1.0; 
stroke:#000000; stroke-width:0; stroke-opacity:1; 
stroke-linecap:round; stroke-linejoin:round;">
<path style="fill:#000000; fill-opacity:1.0; 
stroke:#000000; stroke-width:0; stroke-opacity:1; 
stroke-linecap:round; stroke-linejoin:round;fill-rule:evenodd;"
d="M 73582.7,23169.3
73582.7,22696.9
74055.1,22696.9
74055.1,23169.3
Z" /> 
</g>
<g >
</g>
<g style="fill:#000000; fill-opacity:1.0; 
stroke:#000000; stroke-width:0; stroke-opacity:1; 
stroke-linecap:round; stroke-linejoin:round;">
<circle cx="18559.1" cy="49500" r="393.701" /> 
</g>
<g style="fill:#000000; fill-opacity:1.0; 
stroke:#000000; stroke-width:39.3701; stroke-opacity:1; 
stroke-linecap:round; stroke-linejoin:round;">
</g>
<g style="fill:#000000; fill-opacity:1.0; 
stroke:#000000; stroke-width:0; stroke-opacity:1; 
stroke-linecap:round; stroke-linejoin:round;">
<circle cx="18559.1" cy="51271.7" r="393.701" /> 
</g>
<g style="fill:#000000; fill-opacity:1.0; 
stroke:#000000; stroke-width:39.3701; stroke-opacity:1; 
stroke-linecap:round; stroke-linejoin:round;">
</g>
<g style="fill:#000000; fill-opacity:1.0; 
stroke:#000000; stroke-width:0; stroke-opacity:1; 
stroke-linecap:round; stroke-linejoin:round;">
<circle cx="16000" cy="49500" r="393.701" /> 
</g>
<g style="fill:#000000; fill-opacity:1.0; 
stroke:#000000; stroke-width:39.3701; stroke-opacity:1; 
stroke-linecap:round; stroke-linejoin:round;">
</g>
<g style="fill:#000000; fill-opacity:1.0; 
stroke:#000000; stroke-width:0; stroke-opacity:1; 
stroke-linecap:round; stroke-linejoin:round;">
<circle cx="16000" cy="51271.7" r="393.701" /> 
</g>
<g style="fill:#000000; fill-opacity:1.0; 
stroke:#000000; stroke-width:39.3701; stroke-opacity:1; 
stroke-linecap:round; stroke-linejoin:round;">
</g>
<g >
</g>
<g style="fill:#000000; fill-opacity:1.0; 
stroke:#000000; stroke-width:39.3701; stroke-opacity:1; 
stroke-linecap:round; stroke-linejoin:round;">
</g>
<g style="fill:#000000; fill-opacity:1.0; 
stroke:#000000; stroke-width:0; stroke-opacity:1; 
stroke-linecap:round; stroke-linejoin:round;">
<circle cx="18559.1" cy="54000" r="393.701" /> 
</g>
<g style="fill:#000000; fill-opacity:1.0; 
stroke:#000000; stroke-width:39.3701; stroke-opacity:1; 
stroke-linecap:round; stroke-linejoin:round;">
</g>
<g style="fill:#000000; fill-opacity:1.0; 
stroke:#000000; stroke-width:0; stroke-opacity:1; 
stroke-linecap:round; stroke-linejoin:round;">
<circle cx="18559.1" cy="55771.7" r="393.701" /> 
</g>
<g style="fill:#000000; fill-opacity:1.0; 
stroke:#000000; stroke-width:39.3701; stroke-opacity:1; 
stroke-linecap:round; stroke-linejoin:round;">
</g>
<g style="fill:#000000; fill-opacity:1.0; 
stroke:#000000; stroke-width:0; stroke-opacity:1; 
stroke-linecap:round; stroke-linejoin:round;">
<circle cx="16000" cy="54000" r="393.701" /> 
</g>
<g style="fill:#000000; fill-opacity:1.0; 
stroke:#000000; stroke-width:39.3701; stroke-opacity:1; 
stroke-linecap:round; stroke-linejoin:round;">
</g>
<g style="fill:#000000; fill-opacity:1.0; 
stroke:#000000; stroke-width:0; stroke-opacity:1; 
stroke-linecap:round; stroke-linejoin:round;">
<circle cx="16000" cy="55771.7" r="393.701" /> 
</g>
<g style="fill:#000000; fill-opacity:1.0; 
stroke:#000000; stroke-width:39.3701; stroke-opacity:1; 
stroke-linecap:round; stroke-linejoin:round;">
</g>
<g >
</g>
<g style="fill:#000000; fill-opacity:1.0; 
stroke:#000000; stroke-width:39.3701; stroke-opacity:1; 
stroke-linecap:round; stroke-linejoin:round;">
</g>
<g style="fill:#000000; fill-opacity:1.0; 
stroke:#000000; stroke-width:0; stroke-opacity:1; 
stroke-linecap:round; stroke-linejoin:round;">
<circle cx="55712.6" cy="55275.6" r="334.646" /> 
<circle cx="56712.6" cy="55275.6" r="334.646" /> 
<circle cx="57712.6" cy="55275.6" r="334.646" /> 
<circle cx="58712.6" cy="55275.6" r="334.646" /> 
<circle cx="59712.6" cy="55275.6" r="334.646" /> 
<circle cx="60712.6" cy="55275.6" r="334.646" /> 
<circle cx="61712.6" cy="55275.6" r="334.646" /> 
<circle cx="62712.6" cy="55275.6" r="334.646" /> 
<circle cx="63712.6" cy="55275.6" r="334.646" /> 
<circle cx="64712.6" cy="55275.6" r="334.646" /> 
<circle cx="65712.6" cy="55275.6" r="334.646" /> 
<path style="fill:#000000; fill-opacity:1.0; 
stroke:#000000; stroke-width:0; stroke-opacity:1; 
stroke-linecap:round; stroke-linejoin:round;fill-rule:evenodd;"
d="M 66378,54940.9
67047.2,54940.9
67047.2,55610.2
66378,55610.2
Z" /> 
</g>
<g >
</g>
<g style="fill:#000000; fill-opacity:1.0; 
stroke:#000000; stroke-width:0; stroke-opacity:1; 
stroke-linecap:round; stroke-linejoin:round;">
<circle cx="77657.5" cy="32279.5" r="334.646" /> 
<circle cx="77657.5" cy="31279.5" r="334.646" /> 
<circle cx="77657.5" cy="30279.5" r="334.646" /> 
<circle cx="77657.5" cy="29279.5" r="334.646" /> 
<circle cx="77657.5" cy="28279.5" r="334.646" /> 
<circle cx="77657.5" cy="27279.5" r="334.646" /> 
<path style="fill:#000000; fill-opacity:1.0; 
stroke:#000000; stroke-width:0; stroke-opacity:1; 
stroke-linecap:round; stroke-linejoin:round;fill-rule:evenodd;"
d="M 77322.8,26614.2
77322.8,25944.9
77992.1,25944.9
77992.1,26614.2
Z" /> 
</g>
<g >
</g>
<g style="fill:#000000; fill-opacity:1.0; 
stroke:#000000; stroke-width:0; stroke-opacity:1; 
stroke-linecap:round; stroke-linejoin:round;">
<circle cx="21137.8" cy="39318.9" r="334.646" /> 
<circle cx="21137.8" cy="38318.9" r="334.646" /> 
<circle cx="21137.8" cy="37318.9" r="334.646" /> 
<circle cx="21137.8" cy="36318.9" r="334.646" /> 
<circle cx="21137.8" cy="35318.9" r="334.646" /> 
<circle cx="21137.8" cy="34318.9" r="334.646" /> 
<path style="fill:#000000; fill-opacity:1.0; 
stroke:#000000; stroke-width:0; stroke-opacity:1; 
stroke-linecap:round; stroke-linejoin:round;fill-rule:evenodd;"
d="M 20803.1,33653.5
20803.1,32984.3
21472.4,32984.3
21472.4,33653.5
Z" /> 
</g>
<g >
</g>
<g style="fill:#000000; fill-opacity:1.0; 
stroke:#000000; stroke-width:0; stroke-opacity:1; 
stroke-linecap:round; stroke-linejoin:round;">
<circle cx="24015.7" cy="44000" r="334.646" /> 
<circle cx="24015.7" cy="45000" r="334.646" /> 
<circle cx="24015.7" cy="46000" r="334.646" /> 
<circle cx="24015.7" cy="47000" r="334.646" /> 
<circle cx="24015.7" cy="48000" r="334.646" /> 
<circle cx="24015.7" cy="49000" r="334.646" /> 
<circle cx="24015.7" cy="50000" r="334.646" /> 
<circle cx="24015.7" cy="51000" r="334.646" /> 
<circle cx="24015.7" cy="52000" r="334.646" /> 
<circle cx="24015.7" cy="53000" r="334.646" /> 
<circle cx="24015.7" cy="54000" r="334.646" /> 
<path style="fill:#000000; fill-opacity:1.0; 
stroke:#000000; stroke-width:0; stroke-opacity:1; 
stroke-linecap:round; stroke-linejoin:round;fill-rule:evenodd;"
d="M 24350.4,54665.4
24350.4,55334.6
23681.1,55334.6
23681.1,54665.4
Z" /> 
</g>
<g >
</g>
<g style="fill:#000000; fill-opacity:1.0; 
stroke:#000000; stroke-width:0; stroke-opacity:1; 
stroke-linecap:round; stroke-linejoin:round;">
<circle cx="53287.4" cy="32378" r="334.646" /> 
<circle cx="53287.4" cy="31378" r="334.646" /> 
<circle cx="53287.4" cy="30378" r="334.646" /> 
<circle cx="53287.4" cy="29378" r="334.646" /> 
<circle cx="53287.4" cy="28378" r="334.646" /> 
<circle cx="53287.4" cy="27378" r="334.646" /> 
<path style="fill:#000000; fill-opacity:1.0; 
stroke:#000000; stroke-width:0; stroke-opacity:1; 
stroke-linecap:round; stroke-linejoin:round;fill-rule:evenodd;"
d="M 52952.8,26712.6
52952.8,26043.3
53622,26043.3
53622,26712.6
Z" /> 
</g>
<g >
</g>
<g style="fill:#000000; fill-opacity:1.0; 
stroke:#000000; stroke-width:0; stroke-opacity:1; 
stroke-linecap:round; stroke-linejoin:round;">
<circle cx="102500" cy="45500" r="590.551" /> 
</g>
<g style="fill:#000000; fill-opacity:1.0; 
stroke:#000000; stroke-width:39.3701; stroke-opacity:1; 
stroke-linecap:round; stroke-linejoin:round;">
</g>
<g style="fill:#000000; fill-opacity:1.0; 
stroke:#000000; stroke-width:0; stroke-opacity:1; 
stroke-linecap:round; stroke-linejoin:round;">
<path style="fill:#000000; fill-opacity:1.0; 
stroke:#000000; stroke-width:0; stroke-opacity:1; 
stroke-linecap:round; stroke-linejoin:round;fill-rule:evenodd;"
d="M 101909,42909.4
103091,42909.4
103091,44090.6
101909,44090.6
Z" /> 
</g>
<g >
</g>
<g style="fill:#000000; fill-opacity:1.0; 
stroke:#000000; stroke-width:0; stroke-opacity:1; 
stroke-linecap:round; stroke-linejoin:round;">
<circle cx="86925.2" cy="41484.3" r="452.756" /> 
</g>
<g style="fill:#000000; fill-opacity:1.0; 
stroke:#000000; stroke-width:39.3701; stroke-opacity:1; 
stroke-linecap:round; stroke-linejoin:round;">
</g>
<g style="fill:#000000; fill-opacity:1.0; 
stroke:#000000; stroke-width:0; stroke-opacity:1; 
stroke-linecap:round; stroke-linejoin:round;">
<circle cx="98500" cy="43531.5" r="452.756" /> 
</g>
<g style="fill:#000000; fill-opacity:1.0; 
stroke:#000000; stroke-width:39.3701; stroke-opacity:1; 
stroke-linecap:round; stroke-linejoin:round;">
</g>
<g style="fill:#000000; fill-opacity:1.0; 
stroke:#000000; stroke-width:0; stroke-opacity:1; 
stroke-linecap:round; stroke-linejoin:round;">
<path style="fill:#000000; fill-opacity:1.0; 
stroke:#000000; stroke-width:0; stroke-opacity:1; 
stroke-linecap:round; stroke-linejoin:round;fill-rule:evenodd;"
d="M 98952.8,45106.3
98952.8,45893.7
98047.2,45893.7
98047.2,45106.3
Z" /> 
<circle cx="86925.2" cy="47547.2" r="452.756" /> 
</g>
<g style="fill:#000000; fill-opacity:1.0; 
stroke:#000000; stroke-width:39.3701; stroke-opacity:1; 
stroke-linecap:round; stroke-linejoin:round;">
</g>
<g >
</g>
<g style="fill:#000000; fill-opacity:1.0; 
stroke:#000000; stroke-width:39.3701; stroke-opacity:1; 
stroke-linecap:round; stroke-linejoin:round;">
</g>
<g style="fill:#000000; fill-opacity:1.0; 
stroke:#000000; stroke-width:0; stroke-opacity:1; 
stroke-linecap:round; stroke-linejoin:round;">
<circle cx="55000" cy="50500" r="300" /> 
</g>
<g style="fill:#000000; fill-opacity:1.0; 
stroke:#000000; stroke-width:39.3701; stroke-opacity:1; 
stroke-linecap:round; stroke-linejoin:round;">
</g>
<g style="fill:#000000; fill-opacity:1.0; 
stroke:#000000; stroke-width:0; stroke-opacity:1; 
stroke-linecap:round; stroke-linejoin:round;">
<circle cx="56000" cy="50500" r="300" /> 
</g>
<g style="fill:#000000; fill-opacity:1.0; 
stroke:#000000; stroke-width:39.3701; stroke-opacity:1; 
stroke-linecap:round; stroke-linejoin:round;">
</g>
<g style="fill:#000000; fill-opacity:1.0; 
stroke:#000000; stroke-width:0; stroke-opacity:1; 
stroke-linecap:round; stroke-linejoin:round;">
<circle cx="57000" cy="50500" r="300" /> 
</g>
<g style="fill:#000000; fill-opacity:1.0; 
stroke:#000000; stroke-width:39.3701; stroke-opacity:1; 
stroke-linecap:round; stroke-linejoin:round;">
</g>
<g style="fill:#000000; fill-opacity:1.0; 
stroke:#000000; stroke-width:0; stroke-opacity:1; 
stroke-linecap:round; stroke-linejoin:round;">
<circle cx="58000" cy="50500" r="300" /> 
</g>
<g style="fill:#000000; fill-opacity:1.0; 
stroke:#000000; stroke-width:39.3701; stroke-opacity:1; 
stroke-linecap:round; stroke-linejoin:round;">
</g>
<g style="fill:#000000; fill-opacity:1.0; 
stroke:#000000; stroke-width:0; stroke-opacity:1; 
stroke-linecap:round; stroke-linejoin:round;">
<circle cx="59000" cy="50500" r="300" /> 
</g>
<g style="fill:#000000; fill-opacity:1.0; 
stroke:#000000; stroke-width:39.3701; stroke-opacity:1; 
stroke-linecap:round; stroke-linejoin:round;">
</g>
<g style="fill:#000000; fill-opacity:1.0; 
stroke:#000000; stroke-width:0; stroke-opacity:1; 
stroke-linecap:round; stroke-linejoin:round;">
<circle cx="60000" cy="50500" r="300" /> 
</g>
<g style="fill:#000000; fill-opacity:1.0; 
stroke:#000000; stroke-width:39.3701; stroke-opacity:1; 
stroke-linecap:round; stroke-linejoin:round;">
</g>
<g style="fill:#000000; fill-opacity:1.0; 
stroke:#000000; stroke-width:0; stroke-opacity:1; 
stroke-linecap:round; stroke-linejoin:round;">
<circle cx="61000" cy="50500" r="300" /> 
</g>
<g style="fill:#000000; fill-opacity:1.0; 
stroke:#000000; stroke-width:39.3701; stroke-opacity:1; 
stroke-linecap:round; stroke-linejoin:round;">
</g>
<g style="fill:#000000; fill-opacity:1.0; 
stroke:#000000; stroke-width:0; stroke-opacity:1; 
stroke-linecap:round; stroke-linejoin:round;">
<circle cx="62000" cy="50500" r="300" /> 
</g>
<g style="fill:#000000; fill-opacity:1.0; 
stroke:#000000; stroke-width:39.3701; stroke-opacity:1; 
stroke-linecap:round; stroke-linejoin:round;">
</g>
<g style="fill:#000000; fill-opacity:1.0; 
stroke:#000000; stroke-width:0; stroke-opacity:1; 
stroke-linecap:round; stroke-linejoin:round;">
<circle cx="63000" cy="50500" r="300" /> 
</g>
<g style="fill:#000000; fill-opacity:1.0; 
stroke:#000000; stroke-width:39.3701; stroke-opacity:1; 
stroke-linecap:round; stroke-linejoin:round;">
</g>
<g style="fill:#000000; fill-opacity:1.0; 
stroke:#000000; stroke-width:0; stroke-opacity:1; 
stroke-linecap:round; stroke-linejoin:round;">
<circle cx="64000" cy="50500" r="300" /> 
</g>
<g style="fill:#000000; fill-opacity:1.0; 
stroke:#000000; stroke-width:39.3701; stroke-opacity:1; 
stroke-linecap:round; stroke-linejoin:round;">
</g>
<g style="fill:#000000; fill-opacity:1.0; 
stroke:#000000; stroke-width:0; stroke-opacity:1; 
stroke-linecap:round; stroke-linejoin:round;">
<circle cx="65000" cy="50500" r="300" /> 
</g>
<g style="fill:#000000; fill-opacity:1.0; 
stroke:#000000; stroke-width:39.3701; stroke-opacity:1; 
stroke-linecap:round; stroke-linejoin:round;">
</g>
<g style="fill:#000000; fill-opacity:1.0; 
stroke:#000000; stroke-width:0; stroke-opacity:1; 
stroke-linecap:round; stroke-linejoin:round;">
<circle cx="66000" cy="50500" r="300" /> 
</g>
<g style="fill:#000000; fill-opacity:1.0; 
stroke:#000000; stroke-width:39.3701; stroke-opacity:1; 
stroke-linecap:round; stroke-linejoin:round;">
</g>
<g style="fill:#000000; fill-opacity:1.0; 
stroke:#000000; stroke-width:0; stroke-opacity:1; 
stroke-linecap:round; stroke-linejoin:round;">
<circle cx="67000" cy="50500" r="300" /> 
</g>
<g style="fill:#000000; fill-opacity:1.0; 
stroke:#000000; stroke-width:39.3701; stroke-opacity:1; 
stroke-linecap:round; stroke-linejoin:round;">
</g>
<g style="fill:#000000; fill-opacity:1.0; 
stroke:#000000; stroke-width:0; stroke-opacity:1; 
stroke-linecap:round; stroke-linejoin:round;">
<circle cx="68000" cy="50500" r="300" /> 
</g>
<g style="fill:#000000; fill-opacity:1.0; 
stroke:#000000; stroke-width:39.3701; stroke-opacity:1; 
stroke-linecap:round; stroke-linejoin:round;">
</g>
<g style="fill:#000000; fill-opacity:1.0; 
stroke:#000000; stroke-width:0; stroke-opacity:1; 
stroke-linecap:round; stroke-linejoin:round;">
<circle cx="69000" cy="50500" r="300" /> 
</g>
<g style="fill:#000000; fill-opacity:1.0; 
stroke:#000000; stroke-width:39.3701; stroke-opacity:1; 
stroke-linecap:round; stroke-linejoin:round;">
</g>
<g style="fill:#000000; fill-opacity:1.0; 
stroke:#000000; stroke-width:0; stroke-opacity:1; 
stroke-linecap:round; stroke-linejoin:round;">
<circle cx="69000" cy="40500" r="300" /> 
</g>
<g style="fill:#000000; fill-opacity:1.0; 
stroke:#000000; stroke-width:39.3701; stroke-opacity:1; 
stroke-linecap:round; stroke-linejoin:round;">
</g>
<g style="fill:#000000; fill-opacity:1.0; 
stroke:#000000; stroke-width:0; stroke-opacity:1; 
stroke-linecap:round; stroke-linejoin:round;">
<circle cx="68000" cy="40500" r="300" /> 
</g>
<g style="fill:#000000; fill-opacity:1.0; 
stroke:#000000; stroke-width:39.3701; stroke-opacity:1; 
stroke-linecap:round; stroke-linejoin:round;">
</g>
<g style="fill:#000000; fill-opacity:1.0; 
stroke:#000000; stroke-width:0; stroke-opacity:1; 
stroke-linecap:round; stroke-linejoin:round;">
<circle cx="67000" cy="40500" r="300" /> 
</g>
<g style="fill:#000000; fill-opacity:1.0; 
stroke:#000000; stroke-width:39.3701; stroke-opacity:1; 
stroke-linecap:round; stroke-linejoin:round;">
</g>
<g style="fill:#000000; fill-opacity:1.0; 
stroke:#000000; stroke-width:0; stroke-opacity:1; 
stroke-linecap:round; stroke-linejoin:round;">
<circle cx="66000" cy="40500" r="300" /> 
</g>
<g style="fill:#000000; fill-opacity:1.0; 
stroke:#000000; stroke-width:39.3701; stroke-opacity:1; 
stroke-linecap:round; stroke-linejoin:round;">
</g>
<g style="fill:#000000; fill-opacity:1.0; 
stroke:#000000; stroke-width:0; stroke-opacity:1; 
stroke-linecap:round; stroke-linejoin:round;">
<circle cx="65000" cy="40500" r="300" /> 
</g>
<g style="fill:#000000; fill-opacity:1.0; 
stroke:#000000; stroke-width:39.3701; stroke-opacity:1; 
stroke-linecap:round; stroke-linejoin:round;">
</g>
<g style="fill:#000000; fill-opacity:1.0; 
stroke:#000000; stroke-width:0; stroke-opacity:1; 
stroke-linecap:round; stroke-linejoin:round;">
<circle cx="64000" cy="40500" r="300" /> 
</g>
<g style="fill:#000000; fill-opacity:1.0; 
stroke:#000000; stroke-width:39.3701; stroke-opacity:1; 
stroke-linecap:round; stroke-linejoin:round;">
</g>
<g style="fill:#000000; fill-opacity:1.0; 
stroke:#000000; stroke-width:0; stroke-opacity:1; 
stroke-linecap:round; stroke-linejoin:round;">
<circle cx="63000" cy="40500" r="300" /> 
</g>
<g style="fill:#000000; fill-opacity:1.0; 
stroke:#000000; stroke-width:39.3701; stroke-opacity:1; 
stroke-linecap:round; stroke-linejoin:round;">
</g>
<g style="fill:#000000; fill-opacity:1.0; 
stroke:#000000; stroke-width:0; stroke-opacity:1; 
stroke-linecap:round; stroke-linejoin:round;">
<circle cx="62000" cy="40500" r="300" /> 
</g>
<g style="fill:#000000; fill-opacity:1.0; 
stroke:#000000; stroke-width:39.3701; stroke-opacity:1; 
stroke-linecap:round; stroke-linejoin:round;">
</g>
<g style="fill:#000000; fill-opacity:1.0; 
stroke:#000000; stroke-width:0; stroke-opacity:1; 
stroke-linecap:round; stroke-linejoin:round;">
<circle cx="61000" cy="40500" r="300" /> 
</g>
<g style="fill:#000000; fill-opacity:1.0; 
stroke:#000000; stroke-width:39.3701; stroke-opacity:1; 
stroke-linecap:round; stroke-linejoin:round;">
</g>
<g style="fill:#000000; fill-opacity:1.0; 
stroke:#000000; stroke-width:0; stroke-opacity:1; 
stroke-linecap:round; stroke-linejoin:round;">
<circle cx="60000" cy="40500" r="300" /> 
</g>
<g style="fill:#000000; fill-opacity:1.0; 
stroke:#000000; stroke-width:39.3701; stroke-opacity:1; 
stroke-linecap:round; stroke-linejoin:round;">
</g>
<g style="fill:#000000; fill-opacity:1.0; 
stroke:#000000; stroke-width:0; stroke-opacity:1; 
stroke-linecap:round; stroke-linejoin:round;">
<circle cx="59000" cy="40500" r="300" /> 
</g>
<g style="fill:#000000; fill-opacity:1.0; 
stroke:#000000; stroke-width:39.3701; stroke-opacity:1; 
stroke-linecap:round; stroke-linejoin:round;">
</g>
<g style="fill:#000000; fill-opacity:1.0; 
stroke:#000000; stroke-width:0; stroke-opacity:1; 
stroke-linecap:round; stroke-linejoin:round;">
<circle cx="58000" cy="40500" r="300" /> 
</g>
<g style="fill:#000000; fill-opacity:1.0; 
stroke:#000000; stroke-width:39.3701; stroke-opacity:1; 
stroke-linecap:round; stroke-linejoin:round;">
</g>
<g style="fill:#000000; fill-opacity:1.0; 
stroke:#000000; stroke-width:0; stroke-opacity:1; 
stroke-linecap:round; stroke-linejoin:round;">
<circle cx="57000" cy="40500" r="300" /> 
</g>
<g style="fill:#000000; fill-opacity:1.0; 
stroke:#000000; stroke-width:39.3701; stroke-opacity:1; 
stroke-linecap:round; stroke-linejoin:round;">
</g>
<g style="fill:#000000; fill-opacity:1.0; 
stroke:#000000; stroke-width:0; stroke-opacity:1; 
stroke-linecap:round; stroke-linejoin:round;">
<circle cx="56000" cy="40500" r="300" /> 
</g>
<g style="fill:#000000; fill-opacity:1.0; 
stroke:#000000; stroke-width:39.3701; stroke-opacity:1; 
stroke-linecap:round; stroke-linejoin:round;">
</g>
<g style="fill:#000000; fill-opacity:1.0; 
stroke:#000000; stroke-width:0; stroke-opacity:1; 
stroke-linecap:round; stroke-linejoin:round;">
<circle cx="55000" cy="40500" r="300" /> 
</g>
<g style="fill:#000000; fill-opacity:1.0; 
stroke:#000000; stroke-width:39.3701; stroke-opacity:1; 
stroke-linecap:round; stroke-linejoin:round;">
</g>
<g >
</g>
<g style="fill:#000000; fill-opacity:1.0; 
stroke:#000000; stroke-width:39.3701; stroke-opacity:1; 
stroke-linecap:round; stroke-linejoin:round;">
</g>
<g style="fill:#000000; fill-opacity:1.0; 
stroke:#000000; stroke-width:0; stroke-opacity:1; 
stroke-linecap:round; stroke-linejoin:round;">
<circle cx="18559.1" cy="45500" r="393.701" /> 
</g>
<g style="fill:#000000; fill-opacity:1.0; 
stroke:#000000; stroke-width:39.3701; stroke-opacity:1; 
stroke-linecap:round; stroke-linejoin:round;">
</g>
<g style="fill:#000000; fill-opacity:1.0; 
stroke:#000000; stroke-width:0; stroke-opacity:1; 
stroke-linecap:round; stroke-linejoin:round;">
<circle cx="18559.1" cy="47271.7" r="393.701" /> 
</g>
<g style="fill:#000000; fill-opacity:1.0; 
stroke:#000000; stroke-width:39.3701; stroke-opacity:1; 
stroke-linecap:round; stroke-linejoin:round;">
</g>
<g style="fill:#000000; fill-opacity:1.0; 
stroke:#000000; stroke-width:0; stroke-opacity:1; 
stroke-linecap:round; stroke-linejoin:round;">
<circle cx="16000" cy="45500" r="393.701" /> 
</g>
<g style="fill:#000000; fill-opacity:1.0; 
stroke:#000000; stroke-width:39.3701; stroke-opacity:1; 
stroke-linecap:round; stroke-linejoin:round;">
</g>
<g style="fill:#000000; fill-opacity:1.0; 
stroke:#000000; stroke-width:0; stroke-opacity:1; 
stroke-linecap:round; stroke-linejoin:round;">
<circle cx="16000" cy="47271.7" r="393.701" /> 
</g>
<g style="fill:#000000; fill-opacity:1.0; 
stroke:#000000; stroke-width:39.3701; stroke-opacity:1; 
stroke-linecap:round; stroke-linejoin:round;">
</g>
<g >
</g>
<g style="fill:#000000; fill-opacity:1.0; 
stroke:#000000; stroke-width:39.3701; stroke-opacity:1; 
stroke-linecap:round; stroke-linejoin:round;">
</g>
<g style="fill:#000000; fill-opacity:1.0; 
stroke:#000000; stroke-width:0; stroke-opacity:1; 
stroke-linecap:round; stroke-linejoin:round;">
<circle cx="18559.1" cy="41500" r="393.701" /> 
</g>
<g style="fill:#000000; fill-opacity:1.0; 
stroke:#000000; stroke-width:39.3701; stroke-opacity:1; 
stroke-linecap:round; stroke-linejoin:round;">
</g>
<g style="fill:#000000; fill-opacity:1.0; 
stroke:#000000; stroke-width:0; stroke-opacity:1; 
stroke-linecap:round; stroke-linejoin:round;">
<circle cx="18559.1" cy="43271.7" r="393.701" /> 
</g>
<g style="fill:#000000; fill-opacity:1.0; 
stroke:#000000; stroke-width:39.3701; stroke-opacity:1; 
stroke-linecap:round; stroke-linejoin:round;">
</g>
<g style="fill:#000000; fill-opacity:1.0; 
stroke:#000000; stroke-width:0; stroke-opacity:1; 
stroke-linecap:round; stroke-linejoin:round;">
<circle cx="16000" cy="41500" r="393.701" /> 
</g>
<g style="fill:#000000; fill-opacity:1.0; 
stroke:#000000; stroke-width:39.3701; stroke-opacity:1; 
stroke-linecap:round; stroke-linejoin:round;">
</g>
<g style="fill:#000000; fill-opacity:1.0; 
stroke:#000000; stroke-width:0; stroke-opacity:1; 
stroke-linecap:round; stroke-linejoin:round;">
<circle cx="16000" cy="43271.7" r="393.701" /> 
</g>
<g style="fill:#000000; fill-opacity:1.0; 
stroke:#000000; stroke-width:39.3701; stroke-opacity:1; 
stroke-linecap:round; stroke-linejoin:round;">
</g>
<g >
</g>
<g style="fill:#000000; fill-opacity:1.0; 
stroke:#000000; stroke-width:39.3701; stroke-opacity:1; 
stroke-linecap:round; stroke-linejoin:round;">
</g>
<g style="fill:#000000; fill-opacity:1.0; 
stroke:#000000; stroke-width:0; stroke-opacity:1; 
stroke-linecap:round; stroke-linejoin:round;">
<circle cx="61003.9" cy="48415.4" r="275.591" /> 
<circle cx="61003.9" cy="47667.3" r="275.591" /> 
</g>
<g style="fill:#000000; fill-opacity:1.0; 
stroke:#000000; stroke-width:39.3701; stroke-opacity:1; 
stroke-linecap:round; stroke-linejoin:round;">
</g>
<g >
</g>
<g style="fill:#000000; fill-opacity:1.0; 
stroke:#000000; stroke-width:39.3701; stroke-opacity:1; 
stroke-linecap:round; stroke-linejoin:round;">
</g>
<g style="fill:#000000; fill-opacity:1.0; 
stroke:#000000; stroke-width:0; stroke-opacity:1; 
stroke-linecap:round; stroke-linejoin:round;">
<circle cx="60000" cy="48395.7" r="275.591" /> 
<circle cx="60000" cy="47647.6" r="275.591" /> 
</g>
<g style="fill:#000000; fill-opacity:1.0; 
stroke:#000000; stroke-width:39.3701; stroke-opacity:1; 
stroke-linecap:round; stroke-linejoin:round;">
</g>
<g >
</g>
<g style="fill:#000000; fill-opacity:1.0; 
stroke:#000000; stroke-width:39.3701; stroke-opacity:1; 
stroke-linecap:round; stroke-linejoin:round;">
</g>
<g style="fill:#000000; fill-opacity:1.0; 
stroke:#000000; stroke-width:0; stroke-opacity:1; 
stroke-linecap:round; stroke-linejoin:round;">
<circle cx="59023.6" cy="48405.5" r="275.591" /> 
<circle cx="59023.6" cy="47657.5" r="275.591" /> 
</g>
<g style="fill:#000000; fill-opacity:1.0; 
stroke:#000000; stroke-width:39.3701; stroke-opacity:1; 
stroke-linecap:round; stroke-linejoin:round;">
</g>
<g >
</g>
<g style="fill:#000000; fill-opacity:1.0; 
stroke:#000000; stroke-width:39.3701; stroke-opacity:1; 
stroke-linecap:round; stroke-linejoin:round;">
</g>
<g style="fill:#000000; fill-opacity:1.0; 
stroke:#000000; stroke-width:0; stroke-opacity:1; 
stroke-linecap:round; stroke-linejoin:round;">
<circle cx="57992.1" cy="48415.4" r="275.591" /> 
<circle cx="57992.1" cy="47667.3" r="275.591" /> 
</g>
<g style="fill:#000000; fill-opacity:1.0; 
stroke:#000000; stroke-width:39.3701; stroke-opacity:1; 
stroke-linecap:round; stroke-linejoin:round;">
</g>
<g >
</g>
<g style="fill:#000000; fill-opacity:1.0; 
stroke:#000000; stroke-width:39.3701; stroke-opacity:1; 
stroke-linecap:round; stroke-linejoin:round;">
</g>
<g style="fill:#000000; fill-opacity:1.0; 
stroke:#000000; stroke-width:0; stroke-opacity:1; 
stroke-linecap:round; stroke-linejoin:round;">
<circle cx="62500" cy="38900" r="275.591" /> 
<circle cx="63500" cy="38900" r="275.591" /> 
</g>
<g style="fill:#000000; fill-opacity:1.0; 
stroke:#000000; stroke-width:39.3701; stroke-opacity:1; 
stroke-linecap:round; stroke-linejoin:round;">
</g>
<g >
</g>
<g style="fill:#000000; fill-opacity:1.0; 
stroke:#000000; stroke-width:39.3701; stroke-opacity:1; 
stroke-linecap:round; stroke-linejoin:round;">
</g>
<g style="fill:#000000; fill-opacity:1.0; 
stroke:#000000; stroke-width:0; stroke-opacity:1; 
stroke-linecap:round; stroke-linejoin:round;">
<circle cx="65500" cy="38900" r="275.591" /> 
<circle cx="64500" cy="38900" r="275.591" /> 
</g>
<g style="fill:#000000; fill-opacity:1.0; 
stroke:#000000; stroke-width:39.3701; stroke-opacity:1; 
stroke-linecap:round; stroke-linejoin:round;">
</g>
<g >
</g>
<g style="fill:#000000; fill-opacity:1.0; 
stroke:#000000; stroke-width:39.3701; stroke-opacity:1; 
stroke-linecap:round; stroke-linejoin:round;">
</g>
<g style="fill:#000000; fill-opacity:1.0; 
stroke:#000000; stroke-width:0; stroke-opacity:1; 
stroke-linecap:round; stroke-linejoin:round;">
<circle cx="63448.8" cy="15984.3" r="275.591" /> 
<circle cx="64448.8" cy="15984.3" r="275.591" /> 
</g>
<g style="fill:#000000; fill-opacity:1.0; 
stroke:#000000; stroke-width:39.3701; stroke-opacity:1; 
stroke-linecap:round; stroke-linejoin:round;">
</g>
<g >
</g>
<g style="fill:#000000; fill-opacity:1.0; 
stroke:#000000; stroke-width:39.3701; stroke-opacity:1; 
stroke-linecap:round; stroke-linejoin:round;">
</g>
<g style="fill:#000000; fill-opacity:1.0; 
stroke:#000000; stroke-width:0; stroke-opacity:1; 
stroke-linecap:round; stroke-linejoin:round;">
<circle cx="68283.5" cy="16003.9" r="275.591" /> 
<circle cx="67283.5" cy="16003.9" r="275.591" /> 
</g>
<g style="fill:#000000; fill-opacity:1.0; 
stroke:#000000; stroke-width:39.3701; stroke-opacity:1; 
stroke-linecap:round; stroke-linejoin:round;">
</g>
<g >
</g>
<g style="fill:#000000; fill-opacity:1.0; 
stroke:#000000; stroke-width:39.3701; stroke-opacity:1; 
stroke-linecap:round; stroke-linejoin:round;">
</g>
<g style="fill:#000000; fill-opacity:1.0; 
stroke:#000000; stroke-width:0; stroke-opacity:1; 
stroke-linecap:round; stroke-linejoin:round;">
<circle cx="49787.4" cy="32677.2" r="275.591" /> 
<circle cx="50787.4" cy="32677.2" r="275.591" /> 
</g>
<g style="fill:#000000; fill-opacity:1.0; 
stroke:#000000; stroke-width:39.3701; stroke-opacity:1; 
stroke-linecap:round; stroke-linejoin:round;">
</g>
<g >
</g>
<g style="fill:#000000; fill-opacity:1.0; 
stroke:#000000; stroke-width:39.3701; stroke-opacity:1; 
stroke-linecap:round; stroke-linejoin:round;">
</g>
<g style="fill:#000000; fill-opacity:1.0; 
stroke:#000000; stroke-width:0; stroke-opacity:1; 
stroke-linecap:round; stroke-linejoin:round;">
<circle cx="49787.4" cy="31102.4" r="275.591" /> 
<circle cx="50787.4" cy="31102.4" r="275.591" /> 
</g>
<g style="fill:#000000; fill-opacity:1.0; 
stroke:#000000; stroke-width:39.3701; stroke-opacity:1; 
stroke-linecap:round; stroke-linejoin:round;">
</g>
<g >
</g>
<g style="fill:#000000; fill-opacity:1.0; 
stroke:#000000; stroke-width:39.3701; stroke-opacity:1; 
stroke-linecap:round; stroke-linejoin:round;">
</g>
<g style="fill:#000000; fill-opacity:1.0; 
stroke:#000000; stroke-width:0; stroke-opacity:1; 
stroke-linecap:round; stroke-linejoin:round;">
<circle cx="49787.4" cy="29527.6" r="275.591" /> 
<circle cx="50787.4" cy="29527.6" r="275.591" /> 
</g>
<g style="fill:#000000; fill-opacity:1.0; 
stroke:#000000; stroke-width:39.3701; stroke-opacity:1; 
stroke-linecap:round; stroke-linejoin:round;">
</g>
<g >
</g>
<g style="fill:#000000; fill-opacity:1.0; 
stroke:#000000; stroke-width:39.3701; stroke-opacity:1; 
stroke-linecap:round; stroke-linejoin:round;">
</g>
<g style="fill:#000000; fill-opacity:1.0; 
stroke:#000000; stroke-width:0; stroke-opacity:1; 
stroke-linecap:round; stroke-linejoin:round;">
<circle cx="49787.4" cy="27952.8" r="275.591" /> 
<circle cx="50787.4" cy="27952.8" r="275.591" /> 
</g>
<g style="fill:#000000; fill-opacity:1.0; 
stroke:#000000; stroke-width:39.3701; stroke-opacity:1; 
stroke-linecap:round; stroke-linejoin:round;">
</g>
<g >
</g>
<g style="fill:#000000; fill-opacity:1.0; 
stroke:#000000; stroke-width:39.3701; stroke-opacity:1; 
stroke-linecap:round; stroke-linejoin:round;">
</g>
<g style="fill:#000000; fill-opacity:1.0; 
stroke:#000000; stroke-width:0; stroke-opacity:1; 
stroke-linecap:round; stroke-linejoin:round;">
<circle cx="49787.4" cy="26378" r="275.591" /> 
<circle cx="50787.4" cy="26378" r="275.591" /> 
</g>
<g style="fill:#000000; fill-opacity:1.0; 
stroke:#000000; stroke-width:39.3701; stroke-opacity:1; 
stroke-linecap:round; stroke-linejoin:round;">
</g>
<g >
</g>
<g style="fill:#000000; fill-opacity:1.0; 
stroke:#000000; stroke-width:39.3701; stroke-opacity:1; 
stroke-linecap:round; stroke-linejoin:round;">
</g>
<g style="fill:#000000; fill-opacity:1.0; 
stroke:#000000; stroke-width:0; stroke-opacity:1; 
stroke-linecap:round; stroke-linejoin:round;">
<circle cx="49787.4" cy="24803.1" r="275.591" /> 
<circle cx="50787.4" cy="24803.1" r="275.591" /> 
</g>
<g style="fill:#000000; fill-opacity:1.0; 
stroke:#000000; stroke-width:39.3701; stroke-opacity:1; 
stroke-linecap:round; stroke-linejoin:round;">
</g>
<g >
</g>
<g style="fill:#000000; fill-opacity:1.0; 
stroke:#000000; stroke-width:39.3701; stroke-opacity:1; 
stroke-linecap:round; stroke-linejoin:round;">
</g>
<g style="fill:#000000; fill-opacity:1.0; 
stroke:#000000; stroke-width:0; stroke-opacity:1; 
stroke-linecap:round; stroke-linejoin:round;">
<circle cx="81019.7" cy="32578.7" r="275.591" /> 
<circle cx="80019.7" cy="32578.7" r="275.591" /> 
</g>
<g style="fill:#000000; fill-opacity:1.0; 
stroke:#000000; stroke-width:39.3701; stroke-opacity:1; 
stroke-linecap:round; stroke-linejoin:round;">
</g>
<g >
</g>
<g style="fill:#000000; fill-opacity:1.0; 
stroke:#000000; stroke-width:39.3701; stroke-opacity:1; 
stroke-linecap:round; stroke-linejoin:round;">
</g>
<g style="fill:#000000; fill-opacity:1.0; 
stroke:#000000; stroke-width:0; stroke-opacity:1; 
stroke-linecap:round; stroke-linejoin:round;">
<circle cx="81019.7" cy="31003.9" r="275.591" /> 
<circle cx="80019.7" cy="31003.9" r="275.591" /> 
</g>
<g style="fill:#000000; fill-opacity:1.0; 
stroke:#000000; stroke-width:39.3701; stroke-opacity:1; 
stroke-linecap:round; stroke-linejoin:round;">
</g>
<g >
</g>
<g style="fill:#000000; fill-opacity:1.0; 
stroke:#000000; stroke-width:39.3701; stroke-opacity:1; 
stroke-linecap:round; stroke-linejoin:round;">
</g>
<g style="fill:#000000; fill-opacity:1.0; 
stroke:#000000; stroke-width:0; stroke-opacity:1; 
stroke-linecap:round; stroke-linejoin:round;">
<circle cx="81019.7" cy="29429.1" r="275.591" /> 
<circle cx="80019.7" cy="29429.1" r="275.591" /> 
</g>
<g style="fill:#000000; fill-opacity:1.0; 
stroke:#000000; stroke-width:39.3701; stroke-opacity:1; 
stroke-linecap:round; stroke-linejoin:round;">
</g>
<g >
</g>
<g style="fill:#000000; fill-opacity:1.0; 
stroke:#000000; stroke-width:39.3701; stroke-opacity:1; 
stroke-linecap:round; stroke-linejoin:round;">
</g>
<g style="fill:#000000; fill-opacity:1.0; 
stroke:#000000; stroke-width:0; stroke-opacity:1; 
stroke-linecap:round; stroke-linejoin:round;">
<circle cx="81019.7" cy="27854.3" r="275.591" /> 
<circle cx="80019.7" cy="27854.3" r="275.591" /> 
</g>
<g style="fill:#000000; fill-opacity:1.0; 
stroke:#000000; stroke-width:39.3701; stroke-opacity:1; 
stroke-linecap:round; stroke-linejoin:round;">
</g>
<g >
</g>
<g style="fill:#000000; fill-opacity:1.0; 
stroke:#000000; stroke-width:39.3701; stroke-opacity:1; 
stroke-linecap:round; stroke-linejoin:round;">
</g>
<g style="fill:#000000; fill-opacity:1.0; 
stroke:#000000; stroke-width:0; stroke-opacity:1; 
stroke-linecap:round; stroke-linejoin:round;">
<circle cx="81019.7" cy="26279.5" r="275.591" /> 
<circle cx="80019.7" cy="26279.5" r="275.591" /> 
</g>
<g style="fill:#000000; fill-opacity:1.0; 
stroke:#000000; stroke-width:39.3701; stroke-opacity:1; 
stroke-linecap:round; stroke-linejoin:round;">
</g>
<g >
</g>
<g style="fill:#000000; fill-opacity:1.0; 
stroke:#000000; stroke-width:39.3701; stroke-opacity:1; 
stroke-linecap:round; stroke-linejoin:round;">
</g>
<g style="fill:#000000; fill-opacity:1.0; 
stroke:#000000; stroke-width:0; stroke-opacity:1; 
stroke-linecap:round; stroke-linejoin:round;">
<circle cx="81019.7" cy="24704.7" r="275.591" /> 
<circle cx="80019.7" cy="24704.7" r="275.591" /> 
</g>
<g style="fill:#000000; fill-opacity:1.0; 
stroke:#000000; stroke-width:39.3701; stroke-opacity:1; 
stroke-linecap:round; stroke-linejoin:round;">
</g>
<g >
</g>
<g style="fill:#000000; fill-opacity:1.0; 
stroke:#000000; stroke-width:39.3701; stroke-opacity:1; 
stroke-linecap:round; stroke-linejoin:round;">
</g>
<g style="fill:#000000; fill-opacity:1.0; 
stroke:#000000; stroke-width:779.528; stroke-opacity:1; 
stroke-linecap:round; stroke-linejoin:round;">
</g>
<g style="fill:#000000; fill-opacity:0.0; 
stroke:#000000; stroke-width:779.528; stroke-opacity:1; 
stroke-linecap:round; stroke-linejoin:round;">
<path d="M94877 20866
L94098 20866
" />
</g>
<g style="fill:#000000; fill-opacity:0.0; 
stroke:#000000; stroke-width:0; stroke-opacity:1; 
stroke-linecap:round; stroke-linejoin:round;">
</g>
<g style="fill:#000000; fill-opacity:1.0; 
stroke:#000000; stroke-width:0; stroke-opacity:1; 
stroke-linecap:round; stroke-linejoin:round;">
<path style="fill:#000000; fill-opacity:1.0; 
stroke:#000000; stroke-width:0; stroke-opacity:1; 
stroke-linecap:round; stroke-linejoin:round;fill-rule:evenodd;"
d="M 93708.7,18507.9
95267.7,18507.9
95267.7,19287.4
93708.7,19287.4
Z" /> 
</g>
<g >
</g>
<g >
</g>
<g >
</g>
</g> 
</svg>
